<svg xmlns="http://www.w3.org/2000/svg" width="29" height="20" viewBox="0 0 29 20"
                                fill="none">
                                <g clip-path="url(#clip0_31_163)">
                                    <mask id="mask0_31_163" style="mask-type:luminance" maskUnits="userSpaceOnUse" x="0"
                                        y="0" width="29" height="20">
                                        <path
                                            d="M0.0562344 20L29 20L29 -1.90735e-06L0.0562344 -1.90735e-06L0.0562344 20Z"
                                            fill="white" />
                                    </mask>
                                    <g mask="url(#mask0_31_163)">
                                        <path
                                            d="M8.23462 6.85063C8.93351 7.14197 9.63241 7.36244 10.267 7.70889C12.685 9.0396 13.9704 11.8034 13.4964 14.512C13.0224 17.1892 10.8695 19.3467 8.18642 19.8585C4.15374 20.638 0.803874 17.8664 0.201381 14.3703C-0.127982 12.4648 0.161214 10.575 0.707474 8.74827C2.00083 4.40968 4.96509 1.6459 9.27894 0.197083C9.51191 0.118343 9.76094 0.0396023 10.0019 0.0159798C10.6285 -0.0391388 11.1025 0.220705 11.3837 0.764011C11.6648 1.30732 11.5845 1.82701 11.1989 2.30732C10.7731 2.83488 10.3313 3.34669 9.92964 3.88212C9.22271 4.81913 8.65235 5.827 8.23462 6.85063Z"
                                            fill="white" />
                                        <path
                                            d="M23.5701 6.83486C24.3172 7.14194 25 7.35454 25.6106 7.69312C28.0366 9.01596 29.3781 11.7797 28.9122 14.4097C28.4142 17.2128 26.3094 19.3388 23.538 19.8742C19.5856 20.6301 16.3161 17.953 15.6172 14.5514C15.3441 13.2207 15.4726 11.8821 15.6815 10.5593C16.051 8.23643 16.9106 6.11045 18.4529 4.2758C20.2283 2.16556 22.5017 0.819107 25.1527 0.0474548C25.7391 -0.125774 26.3576 0.126194 26.7031 0.638006C27.0485 1.15769 27.0083 1.77186 26.6067 2.28367C26.0363 3.00808 25.4338 3.70887 24.9277 4.47265C24.4136 5.23643 24.0039 6.0632 23.5701 6.83486Z"
                                            fill="white" />
                                    </g>
                                </g>
                                <defs>
                                    <clipPath id="clip0_31_163">
                                        <rect width="29" height="20" fill="white" transform="matrix(-1 0 0 -1 29 20)" />
                                    </clipPath>
                                </defs>
                            </svg>