<svg xmlns="http://www.w3.org/2000/svg" xmlns:xlink="http://www.w3.org/1999/xlink" width="551" zoomAndPan="magnify" viewBox="0 0 413.25 421.500001" height="562" preserveAspectRatio="xMidYMid meet" version="1.0"><defs><g/><clipPath id="cfccad3898"><path d="M 0 0.132812 L 412.5 0.132812 L 412.5 420.867188 L 0 420.867188 Z M 0 0.132812 " clip-rule="nonzero"/></clipPath></defs><g clip-path="url(#cfccad3898)"><path fill="#ffffff" d="M 0 0.132812 L 412.5 0.132812 L 412.5 420.867188 L 0 420.867188 Z M 0 0.132812 " fill-opacity="1" fill-rule="nonzero"/></g><path stroke-linecap="round" transform="matrix(-0.748441, 0.0173297, -0.0173297, -0.748441, 207.388809, 24.837245)" fill="none" stroke-linejoin="miter" d="M 1.002577 1.000949 L 35.219574 0.999906 " stroke="#060724" stroke-width="2" stroke-opacity="1" stroke-miterlimit="4"/><path stroke-linecap="round" transform="matrix(0, 0.748641, -0.748641, 0, 208.117435, 23.344974)" fill="none" stroke-linejoin="miter" d="M 1.000179 1.002145 L 121.776273 1.002145 " stroke="#060724" stroke-width="2" stroke-opacity="1" stroke-miterlimit="4"/><path stroke-linecap="round" transform="matrix(-0.748618, 0.00589731, -0.00589731, -0.748618, 206.951821, 212.623424)" fill="none" stroke-linejoin="miter" d="M 0.997425 1.00238 L 97.498169 1.000754 " stroke="#060724" stroke-width="2" stroke-opacity="1" stroke-miterlimit="4"/><path stroke-linecap="round" transform="matrix(-0.748584, -0.00921758, 0.00921758, -0.748584, 207.352826, 405.14709)" fill="none" stroke-linejoin="miter" d="M 1.000216 0.998211 L 55.003216 1.00118 " stroke="#060724" stroke-width="2" stroke-opacity="1" stroke-miterlimit="4"/><path stroke-linecap="round" transform="matrix(-0.748604, 0.00744102, -0.00744102, -0.748604, 265.927001, 309.138386)" fill="none" stroke-linejoin="miter" d="M 0.998788 0.998366 L 77.80838 1.000007 " stroke="#060724" stroke-width="2" stroke-opacity="1" stroke-miterlimit="4"/><path stroke-linecap="round" transform="matrix(-0.748641, 0, 0, -0.748641, 265.037728, 115.821585)" fill="none" stroke-linejoin="miter" d="M 1.000032 0.998297 L 76.637059 0.998297 " stroke="#060724" stroke-width="2" stroke-opacity="1" stroke-miterlimit="4"/><path stroke-linecap="round" transform="matrix(0, 0.748641, -0.748641, 0, 208.120417, 115.259078)" fill="none" stroke-linejoin="miter" d="M 1.000124 1.000911 L 128.830665 1.000911 " stroke="#060724" stroke-width="2" stroke-opacity="1" stroke-miterlimit="4"/><path stroke-linecap="round" transform="matrix(0, 0.748641, -0.748641, 0, 208.118661, 211.878568)" fill="none" stroke-linejoin="miter" d="M 1.002267 0.998566 L 128.838025 0.998566 " stroke="#060724" stroke-width="2" stroke-opacity="1" stroke-miterlimit="4"/><path stroke-linecap="round" transform="matrix(0, 0.748641, -0.748641, 0, 208.118647, 308.393401)" fill="none" stroke-linejoin="miter" d="M 0.998107 0.998547 L 128.244256 0.998547 " stroke="#060724" stroke-width="2" stroke-opacity="1" stroke-miterlimit="4"/><g fill="#060724" fill-opacity="1"><g transform="translate(53.280578, 21.72972)"><g><path d="M 6.640625 0 L 4.15625 -4.265625 L 2.515625 -4.265625 L 2.515625 0 L 1.15625 0 L 1.15625 -10.4375 L 4.515625 -10.4375 C 5.304688 -10.4375 5.972656 -10.300781 6.515625 -10.03125 C 7.054688 -9.757812 7.460938 -9.394531 7.734375 -8.9375 C 8.003906 -8.476562 8.140625 -7.953125 8.140625 -7.359375 C 8.140625 -6.640625 7.929688 -6.003906 7.515625 -5.453125 C 7.109375 -4.910156 6.488281 -4.550781 5.65625 -4.375 L 8.28125 0 Z M 2.515625 -5.359375 L 4.515625 -5.359375 C 5.253906 -5.359375 5.804688 -5.539062 6.171875 -5.90625 C 6.546875 -6.269531 6.734375 -6.753906 6.734375 -7.359375 C 6.734375 -7.984375 6.550781 -8.460938 6.1875 -8.796875 C 5.820312 -9.140625 5.265625 -9.3125 4.515625 -9.3125 L 2.515625 -9.3125 Z M 2.515625 -5.359375 "/></g></g></g><g fill="#060724" fill-opacity="1"><g transform="translate(62.384048, 21.72972)"><g><path d="M 8.640625 -4.421875 C 8.640625 -4.160156 8.625 -3.882812 8.59375 -3.59375 L 2.03125 -3.59375 C 2.082031 -2.78125 2.359375 -2.144531 2.859375 -1.6875 C 3.367188 -1.238281 3.984375 -1.015625 4.703125 -1.015625 C 5.285156 -1.015625 5.773438 -1.148438 6.171875 -1.421875 C 6.566406 -1.703125 6.84375 -2.070312 7 -2.53125 L 8.46875 -2.53125 C 8.25 -1.738281 7.8125 -1.09375 7.15625 -0.59375 C 6.5 -0.101562 5.679688 0.140625 4.703125 0.140625 C 3.921875 0.140625 3.222656 -0.03125 2.609375 -0.375 C 1.992188 -0.726562 1.507812 -1.226562 1.15625 -1.875 C 0.8125 -2.519531 0.640625 -3.265625 0.640625 -4.109375 C 0.640625 -4.960938 0.804688 -5.707031 1.140625 -6.34375 C 1.484375 -6.988281 1.960938 -7.484375 2.578125 -7.828125 C 3.191406 -8.171875 3.898438 -8.34375 4.703125 -8.34375 C 5.484375 -8.34375 6.171875 -8.171875 6.765625 -7.828125 C 7.359375 -7.484375 7.816406 -7.015625 8.140625 -6.421875 C 8.472656 -5.828125 8.640625 -5.160156 8.640625 -4.421875 Z M 7.234375 -4.703125 C 7.234375 -5.222656 7.117188 -5.664062 6.890625 -6.03125 C 6.660156 -6.40625 6.347656 -6.691406 5.953125 -6.890625 C 5.554688 -7.085938 5.117188 -7.1875 4.640625 -7.1875 C 3.953125 -7.1875 3.363281 -6.96875 2.875 -6.53125 C 2.394531 -6.09375 2.117188 -5.484375 2.046875 -4.703125 Z M 7.234375 -4.703125 "/></g></g></g><g fill="#060724" fill-opacity="1"><g transform="translate(71.667195, 21.72972)"><g><path d="M 0.640625 -4.125 C 0.640625 -4.96875 0.804688 -5.707031 1.140625 -6.34375 C 1.484375 -6.976562 1.953125 -7.46875 2.546875 -7.8125 C 3.140625 -8.164062 3.804688 -8.34375 4.546875 -8.34375 C 5.253906 -8.34375 5.875 -8.179688 6.40625 -7.859375 C 6.945312 -7.546875 7.34375 -7.160156 7.59375 -6.703125 L 7.59375 -8.203125 L 8.96875 -8.203125 L 8.96875 3.890625 L 7.59375 3.890625 L 7.59375 -1.515625 C 7.332031 -1.054688 6.929688 -0.664062 6.390625 -0.34375 C 5.847656 -0.0195312 5.21875 0.140625 4.5 0.140625 C 3.78125 0.140625 3.125 -0.0351562 2.53125 -0.390625 C 1.945312 -0.753906 1.484375 -1.257812 1.140625 -1.90625 C 0.804688 -2.5625 0.640625 -3.300781 0.640625 -4.125 Z M 7.59375 -4.109375 C 7.59375 -4.734375 7.46875 -5.273438 7.21875 -5.734375 C 6.96875 -6.191406 6.628906 -6.539062 6.203125 -6.78125 C 5.773438 -7.03125 5.3125 -7.15625 4.8125 -7.15625 C 4.300781 -7.15625 3.832031 -7.035156 3.40625 -6.796875 C 2.988281 -6.554688 2.65625 -6.207031 2.40625 -5.75 C 2.15625 -5.289062 2.03125 -4.75 2.03125 -4.125 C 2.03125 -3.5 2.15625 -2.953125 2.40625 -2.484375 C 2.65625 -2.023438 2.988281 -1.671875 3.40625 -1.421875 C 3.832031 -1.179688 4.300781 -1.0625 4.8125 -1.0625 C 5.3125 -1.0625 5.773438 -1.179688 6.203125 -1.421875 C 6.628906 -1.671875 6.96875 -2.023438 7.21875 -2.484375 C 7.46875 -2.953125 7.59375 -3.492188 7.59375 -4.109375 Z M 7.59375 -4.109375 "/></g></g></g><g fill="#060724" fill-opacity="1"><g transform="translate(81.788817, 21.72972)"><g><path d="M 8.421875 -8.203125 L 8.421875 0 L 7.0625 0 L 7.0625 -1.21875 C 6.800781 -0.789062 6.4375 -0.457031 5.96875 -0.21875 C 5.507812 0.0078125 5.003906 0.125 4.453125 0.125 C 3.804688 0.125 3.226562 -0.00390625 2.71875 -0.265625 C 2.207031 -0.535156 1.804688 -0.9375 1.515625 -1.46875 C 1.222656 -2 1.078125 -2.640625 1.078125 -3.390625 L 1.078125 -8.203125 L 2.421875 -8.203125 L 2.421875 -3.578125 C 2.421875 -2.765625 2.625 -2.140625 3.03125 -1.703125 C 3.445312 -1.273438 4.007812 -1.0625 4.71875 -1.0625 C 5.445312 -1.0625 6.019531 -1.285156 6.4375 -1.734375 C 6.851562 -2.179688 7.0625 -2.835938 7.0625 -3.703125 L 7.0625 -8.203125 Z M 8.421875 -8.203125 "/></g></g></g><g fill="#060724" fill-opacity="1"><g transform="translate(91.371416, 21.72972)"><g><path d="M 1.859375 -9.53125 C 1.597656 -9.53125 1.375 -9.617188 1.1875 -9.796875 C 1.007812 -9.984375 0.921875 -10.207031 0.921875 -10.46875 C 0.921875 -10.726562 1.007812 -10.945312 1.1875 -11.125 C 1.375 -11.300781 1.597656 -11.390625 1.859375 -11.390625 C 2.109375 -11.390625 2.316406 -11.300781 2.484375 -11.125 C 2.660156 -10.945312 2.75 -10.726562 2.75 -10.46875 C 2.75 -10.207031 2.660156 -9.984375 2.484375 -9.796875 C 2.316406 -9.617188 2.109375 -9.53125 1.859375 -9.53125 Z M 2.515625 -8.203125 L 2.515625 0 L 1.15625 0 L 1.15625 -8.203125 Z M 2.515625 -8.203125 "/></g></g></g><g fill="#060724" fill-opacity="1"><g transform="translate(95.054729, 21.72972)"><g><path d="M 2.515625 -6.875 C 2.753906 -7.34375 3.09375 -7.707031 3.53125 -7.96875 C 3.976562 -8.226562 4.523438 -8.359375 5.171875 -8.359375 L 5.171875 -6.953125 L 4.8125 -6.953125 C 3.28125 -6.953125 2.515625 -6.117188 2.515625 -4.453125 L 2.515625 0 L 1.15625 0 L 1.15625 -8.203125 L 2.515625 -8.203125 Z M 2.515625 -6.875 "/></g></g></g><g fill="#060724" fill-opacity="1"><g transform="translate(100.639587, 21.72972)"><g><path d="M 8.640625 -4.421875 C 8.640625 -4.160156 8.625 -3.882812 8.59375 -3.59375 L 2.03125 -3.59375 C 2.082031 -2.78125 2.359375 -2.144531 2.859375 -1.6875 C 3.367188 -1.238281 3.984375 -1.015625 4.703125 -1.015625 C 5.285156 -1.015625 5.773438 -1.148438 6.171875 -1.421875 C 6.566406 -1.703125 6.84375 -2.070312 7 -2.53125 L 8.46875 -2.53125 C 8.25 -1.738281 7.8125 -1.09375 7.15625 -0.59375 C 6.5 -0.101562 5.679688 0.140625 4.703125 0.140625 C 3.921875 0.140625 3.222656 -0.03125 2.609375 -0.375 C 1.992188 -0.726562 1.507812 -1.226562 1.15625 -1.875 C 0.8125 -2.519531 0.640625 -3.265625 0.640625 -4.109375 C 0.640625 -4.960938 0.804688 -5.707031 1.140625 -6.34375 C 1.484375 -6.988281 1.960938 -7.484375 2.578125 -7.828125 C 3.191406 -8.171875 3.898438 -8.34375 4.703125 -8.34375 C 5.484375 -8.34375 6.171875 -8.171875 6.765625 -7.828125 C 7.359375 -7.484375 7.816406 -7.015625 8.140625 -6.421875 C 8.472656 -5.828125 8.640625 -5.160156 8.640625 -4.421875 Z M 7.234375 -4.703125 C 7.234375 -5.222656 7.117188 -5.664062 6.890625 -6.03125 C 6.660156 -6.40625 6.347656 -6.691406 5.953125 -6.890625 C 5.554688 -7.085938 5.117188 -7.1875 4.640625 -7.1875 C 3.953125 -7.1875 3.363281 -6.96875 2.875 -6.53125 C 2.394531 -6.09375 2.117188 -5.484375 2.046875 -4.703125 Z M 7.234375 -4.703125 "/></g></g></g><g fill="#060724" fill-opacity="1"><g transform="translate(109.922734, 21.72972)"><g><path d="M 11.015625 -8.359375 C 11.648438 -8.359375 12.21875 -8.222656 12.71875 -7.953125 C 13.21875 -7.691406 13.613281 -7.296875 13.90625 -6.765625 C 14.195312 -6.234375 14.34375 -5.585938 14.34375 -4.828125 L 14.34375 0 L 13 0 L 13 -4.640625 C 13 -5.460938 12.796875 -6.085938 12.390625 -6.515625 C 11.984375 -6.953125 11.4375 -7.171875 10.75 -7.171875 C 10.039062 -7.171875 9.472656 -6.941406 9.046875 -6.484375 C 8.628906 -6.035156 8.421875 -5.378906 8.421875 -4.515625 L 8.421875 0 L 7.078125 0 L 7.078125 -4.640625 C 7.078125 -5.460938 6.875 -6.085938 6.46875 -6.515625 C 6.070312 -6.953125 5.523438 -7.171875 4.828125 -7.171875 C 4.117188 -7.171875 3.554688 -6.941406 3.140625 -6.484375 C 2.722656 -6.035156 2.515625 -5.378906 2.515625 -4.515625 L 2.515625 0 L 1.15625 0 L 1.15625 -8.203125 L 2.515625 -8.203125 L 2.515625 -7.015625 C 2.785156 -7.441406 3.144531 -7.769531 3.59375 -8 C 4.050781 -8.238281 4.554688 -8.359375 5.109375 -8.359375 C 5.796875 -8.359375 6.398438 -8.203125 6.921875 -7.890625 C 7.453125 -7.578125 7.847656 -7.125 8.109375 -6.53125 C 8.335938 -7.101562 8.71875 -7.550781 9.25 -7.875 C 9.78125 -8.195312 10.367188 -8.359375 11.015625 -8.359375 Z M 11.015625 -8.359375 "/></g></g></g><g fill="#060724" fill-opacity="1"><g transform="translate(125.344726, 21.72972)"><g><path d="M 8.640625 -4.421875 C 8.640625 -4.160156 8.625 -3.882812 8.59375 -3.59375 L 2.03125 -3.59375 C 2.082031 -2.78125 2.359375 -2.144531 2.859375 -1.6875 C 3.367188 -1.238281 3.984375 -1.015625 4.703125 -1.015625 C 5.285156 -1.015625 5.773438 -1.148438 6.171875 -1.421875 C 6.566406 -1.703125 6.84375 -2.070312 7 -2.53125 L 8.46875 -2.53125 C 8.25 -1.738281 7.8125 -1.09375 7.15625 -0.59375 C 6.5 -0.101562 5.679688 0.140625 4.703125 0.140625 C 3.921875 0.140625 3.222656 -0.03125 2.609375 -0.375 C 1.992188 -0.726562 1.507812 -1.226562 1.15625 -1.875 C 0.8125 -2.519531 0.640625 -3.265625 0.640625 -4.109375 C 0.640625 -4.960938 0.804688 -5.707031 1.140625 -6.34375 C 1.484375 -6.988281 1.960938 -7.484375 2.578125 -7.828125 C 3.191406 -8.171875 3.898438 -8.34375 4.703125 -8.34375 C 5.484375 -8.34375 6.171875 -8.171875 6.765625 -7.828125 C 7.359375 -7.484375 7.816406 -7.015625 8.140625 -6.421875 C 8.472656 -5.828125 8.640625 -5.160156 8.640625 -4.421875 Z M 7.234375 -4.703125 C 7.234375 -5.222656 7.117188 -5.664062 6.890625 -6.03125 C 6.660156 -6.40625 6.347656 -6.691406 5.953125 -6.890625 C 5.554688 -7.085938 5.117188 -7.1875 4.640625 -7.1875 C 3.953125 -7.1875 3.363281 -6.96875 2.875 -6.53125 C 2.394531 -6.09375 2.117188 -5.484375 2.046875 -4.703125 Z M 7.234375 -4.703125 "/></g></g></g><g fill="#060724" fill-opacity="1"><g transform="translate(134.627874, 21.72972)"><g><path d="M 5.15625 -8.359375 C 6.144531 -8.359375 6.945312 -8.054688 7.5625 -7.453125 C 8.1875 -6.847656 8.5 -5.972656 8.5 -4.828125 L 8.5 0 L 7.15625 0 L 7.15625 -4.640625 C 7.15625 -5.460938 6.945312 -6.085938 6.53125 -6.515625 C 6.125 -6.953125 5.566406 -7.171875 4.859375 -7.171875 C 4.140625 -7.171875 3.566406 -6.945312 3.140625 -6.5 C 2.722656 -6.050781 2.515625 -5.394531 2.515625 -4.53125 L 2.515625 0 L 1.15625 0 L 1.15625 -8.203125 L 2.515625 -8.203125 L 2.515625 -7.03125 C 2.785156 -7.445312 3.148438 -7.769531 3.609375 -8 C 4.078125 -8.238281 4.59375 -8.359375 5.15625 -8.359375 Z M 5.15625 -8.359375 "/></g></g></g><g fill="#060724" fill-opacity="1"><g transform="translate(144.210473, 21.72972)"><g><path d="M 2.8125 -7.078125 L 2.8125 -2.25 C 2.8125 -1.84375 2.894531 -1.554688 3.0625 -1.390625 C 3.238281 -1.234375 3.535156 -1.15625 3.953125 -1.15625 L 4.953125 -1.15625 L 4.953125 0 L 3.734375 0 C 2.972656 0 2.398438 -0.171875 2.015625 -0.515625 C 1.640625 -0.867188 1.453125 -1.445312 1.453125 -2.25 L 1.453125 -7.078125 L 0.390625 -7.078125 L 0.390625 -8.203125 L 1.453125 -8.203125 L 1.453125 -10.265625 L 2.8125 -10.265625 L 2.8125 -8.203125 L 4.953125 -8.203125 L 4.953125 -7.078125 Z M 2.8125 -7.078125 "/></g></g></g><g fill="#060724" fill-opacity="1"><g transform="translate(149.66058, 21.72972)"><g><path d="M 4.0625 0.140625 C 3.425781 0.140625 2.859375 0.03125 2.359375 -0.1875 C 1.859375 -0.40625 1.460938 -0.703125 1.171875 -1.078125 C 0.890625 -1.460938 0.734375 -1.90625 0.703125 -2.40625 L 2.109375 -2.40625 C 2.148438 -2 2.34375 -1.664062 2.6875 -1.40625 C 3.03125 -1.144531 3.484375 -1.015625 4.046875 -1.015625 C 4.554688 -1.015625 4.960938 -1.128906 5.265625 -1.359375 C 5.566406 -1.585938 5.71875 -1.878906 5.71875 -2.234375 C 5.71875 -2.585938 5.554688 -2.851562 5.234375 -3.03125 C 4.921875 -3.207031 4.425781 -3.378906 3.75 -3.546875 C 3.144531 -3.703125 2.648438 -3.863281 2.265625 -4.03125 C 1.878906 -4.195312 1.550781 -4.441406 1.28125 -4.765625 C 1.007812 -5.085938 0.875 -5.515625 0.875 -6.046875 C 0.875 -6.460938 0.992188 -6.84375 1.234375 -7.1875 C 1.484375 -7.539062 1.835938 -7.820312 2.296875 -8.03125 C 2.765625 -8.238281 3.289062 -8.34375 3.875 -8.34375 C 4.78125 -8.34375 5.515625 -8.109375 6.078125 -7.640625 C 6.640625 -7.179688 6.9375 -6.554688 6.96875 -5.765625 L 5.609375 -5.765625 C 5.578125 -6.191406 5.40625 -6.535156 5.09375 -6.796875 C 4.78125 -7.054688 4.359375 -7.1875 3.828125 -7.1875 C 3.335938 -7.1875 2.945312 -7.082031 2.65625 -6.875 C 2.375 -6.664062 2.234375 -6.390625 2.234375 -6.046875 C 2.234375 -5.773438 2.316406 -5.550781 2.484375 -5.375 C 2.660156 -5.207031 2.878906 -5.070312 3.140625 -4.96875 C 3.410156 -4.863281 3.78125 -4.742188 4.25 -4.609375 C 4.84375 -4.453125 5.320312 -4.296875 5.6875 -4.140625 C 6.050781 -3.984375 6.363281 -3.75 6.625 -3.4375 C 6.894531 -3.132812 7.035156 -2.734375 7.046875 -2.234375 C 7.046875 -1.785156 6.921875 -1.378906 6.671875 -1.015625 C 6.421875 -0.660156 6.066406 -0.378906 5.609375 -0.171875 C 5.160156 0.0351562 4.644531 0.140625 4.0625 0.140625 Z M 4.0625 0.140625 "/></g></g></g><g fill="#060724" fill-opacity="1"><g transform="translate(67.855688, 37.451186)"><g><path d="M 9.0625 -7.40625 C 8.769531 -8.019531 8.347656 -8.492188 7.796875 -8.828125 C 7.242188 -9.160156 6.601562 -9.328125 5.875 -9.328125 C 5.15625 -9.328125 4.5 -9.160156 3.90625 -8.828125 C 3.320312 -8.492188 2.863281 -8.015625 2.53125 -7.390625 C 2.195312 -6.765625 2.03125 -6.039062 2.03125 -5.21875 C 2.03125 -4.40625 2.195312 -3.6875 2.53125 -3.0625 C 2.863281 -2.445312 3.320312 -1.972656 3.90625 -1.640625 C 4.5 -1.304688 5.15625 -1.140625 5.875 -1.140625 C 6.894531 -1.140625 7.734375 -1.441406 8.390625 -2.046875 C 9.054688 -2.660156 9.441406 -3.484375 9.546875 -4.515625 L 5.390625 -4.515625 L 5.390625 -5.625 L 11 -5.625 L 11 -4.578125 C 10.914062 -3.722656 10.644531 -2.9375 10.1875 -2.21875 C 9.726562 -1.507812 9.125 -0.945312 8.375 -0.53125 C 7.632812 -0.113281 6.800781 0.09375 5.875 0.09375 C 4.914062 0.09375 4.035156 -0.128906 3.234375 -0.578125 C 2.429688 -1.035156 1.796875 -1.671875 1.328125 -2.484375 C 0.867188 -3.296875 0.640625 -4.207031 0.640625 -5.21875 C 0.640625 -6.238281 0.867188 -7.15625 1.328125 -7.96875 C 1.796875 -8.78125 2.429688 -9.410156 3.234375 -9.859375 C 4.035156 -10.316406 4.914062 -10.546875 5.875 -10.546875 C 6.988281 -10.546875 7.972656 -10.269531 8.828125 -9.71875 C 9.679688 -9.175781 10.300781 -8.40625 10.6875 -7.40625 Z M 9.0625 -7.40625 "/></g></g></g><g fill="#060724" fill-opacity="1"><g transform="translate(79.504533, 37.451186)"><g><path d="M 0.640625 -4.125 C 0.640625 -4.96875 0.804688 -5.707031 1.140625 -6.34375 C 1.484375 -6.976562 1.953125 -7.46875 2.546875 -7.8125 C 3.140625 -8.164062 3.800781 -8.34375 4.53125 -8.34375 C 5.25 -8.34375 5.875 -8.1875 6.40625 -7.875 C 6.9375 -7.5625 7.332031 -7.171875 7.59375 -6.703125 L 7.59375 -8.203125 L 8.96875 -8.203125 L 8.96875 0 L 7.59375 0 L 7.59375 -1.53125 C 7.320312 -1.050781 6.914062 -0.648438 6.375 -0.328125 C 5.84375 -0.015625 5.222656 0.140625 4.515625 0.140625 C 3.785156 0.140625 3.125 -0.0351562 2.53125 -0.390625 C 1.945312 -0.753906 1.484375 -1.257812 1.140625 -1.90625 C 0.804688 -2.5625 0.640625 -3.300781 0.640625 -4.125 Z M 7.59375 -4.109375 C 7.59375 -4.734375 7.46875 -5.273438 7.21875 -5.734375 C 6.96875 -6.191406 6.628906 -6.539062 6.203125 -6.78125 C 5.773438 -7.03125 5.3125 -7.15625 4.8125 -7.15625 C 4.300781 -7.15625 3.832031 -7.035156 3.40625 -6.796875 C 2.988281 -6.554688 2.65625 -6.207031 2.40625 -5.75 C 2.15625 -5.289062 2.03125 -4.75 2.03125 -4.125 C 2.03125 -3.5 2.15625 -2.953125 2.40625 -2.484375 C 2.65625 -2.023438 2.988281 -1.671875 3.40625 -1.421875 C 3.832031 -1.179688 4.300781 -1.0625 4.8125 -1.0625 C 5.3125 -1.0625 5.773438 -1.179688 6.203125 -1.421875 C 6.628906 -1.671875 6.96875 -2.023438 7.21875 -2.484375 C 7.46875 -2.953125 7.59375 -3.492188 7.59375 -4.109375 Z M 7.59375 -4.109375 "/></g></g></g><g fill="#060724" fill-opacity="1"><g transform="translate(89.626155, 37.451186)"><g><path d="M 2.8125 -7.078125 L 2.8125 -2.25 C 2.8125 -1.84375 2.894531 -1.554688 3.0625 -1.390625 C 3.238281 -1.234375 3.535156 -1.15625 3.953125 -1.15625 L 4.953125 -1.15625 L 4.953125 0 L 3.734375 0 C 2.972656 0 2.398438 -0.171875 2.015625 -0.515625 C 1.640625 -0.867188 1.453125 -1.445312 1.453125 -2.25 L 1.453125 -7.078125 L 0.390625 -7.078125 L 0.390625 -8.203125 L 1.453125 -8.203125 L 1.453125 -10.265625 L 2.8125 -10.265625 L 2.8125 -8.203125 L 4.953125 -8.203125 L 4.953125 -7.078125 Z M 2.8125 -7.078125 "/></g></g></g><g fill="#060724" fill-opacity="1"><g transform="translate(95.076262, 37.451186)"><g><path d="M 5.21875 -8.359375 C 5.84375 -8.359375 6.40625 -8.222656 6.90625 -7.953125 C 7.40625 -7.691406 7.796875 -7.296875 8.078125 -6.765625 C 8.359375 -6.234375 8.5 -5.585938 8.5 -4.828125 L 8.5 0 L 7.15625 0 L 7.15625 -4.640625 C 7.15625 -5.460938 6.945312 -6.085938 6.53125 -6.515625 C 6.125 -6.953125 5.566406 -7.171875 4.859375 -7.171875 C 4.140625 -7.171875 3.566406 -6.945312 3.140625 -6.5 C 2.722656 -6.050781 2.515625 -5.394531 2.515625 -4.53125 L 2.515625 0 L 1.15625 0 L 1.15625 -11.078125 L 2.515625 -11.078125 L 2.515625 -7.03125 C 2.785156 -7.445312 3.15625 -7.769531 3.625 -8 C 4.101562 -8.238281 4.632812 -8.359375 5.21875 -8.359375 Z M 5.21875 -8.359375 "/></g></g></g><g fill="#060724" fill-opacity="1"><g transform="translate(104.658862, 37.451186)"><g><path d="M 8.640625 -4.421875 C 8.640625 -4.160156 8.625 -3.882812 8.59375 -3.59375 L 2.03125 -3.59375 C 2.082031 -2.78125 2.359375 -2.144531 2.859375 -1.6875 C 3.367188 -1.238281 3.984375 -1.015625 4.703125 -1.015625 C 5.285156 -1.015625 5.773438 -1.148438 6.171875 -1.421875 C 6.566406 -1.703125 6.84375 -2.070312 7 -2.53125 L 8.46875 -2.53125 C 8.25 -1.738281 7.8125 -1.09375 7.15625 -0.59375 C 6.5 -0.101562 5.679688 0.140625 4.703125 0.140625 C 3.921875 0.140625 3.222656 -0.03125 2.609375 -0.375 C 1.992188 -0.726562 1.507812 -1.226562 1.15625 -1.875 C 0.8125 -2.519531 0.640625 -3.265625 0.640625 -4.109375 C 0.640625 -4.960938 0.804688 -5.707031 1.140625 -6.34375 C 1.484375 -6.988281 1.960938 -7.484375 2.578125 -7.828125 C 3.191406 -8.171875 3.898438 -8.34375 4.703125 -8.34375 C 5.484375 -8.34375 6.171875 -8.171875 6.765625 -7.828125 C 7.359375 -7.484375 7.816406 -7.015625 8.140625 -6.421875 C 8.472656 -5.828125 8.640625 -5.160156 8.640625 -4.421875 Z M 7.234375 -4.703125 C 7.234375 -5.222656 7.117188 -5.664062 6.890625 -6.03125 C 6.660156 -6.40625 6.347656 -6.691406 5.953125 -6.890625 C 5.554688 -7.085938 5.117188 -7.1875 4.640625 -7.1875 C 3.953125 -7.1875 3.363281 -6.96875 2.875 -6.53125 C 2.394531 -6.09375 2.117188 -5.484375 2.046875 -4.703125 Z M 7.234375 -4.703125 "/></g></g></g><g fill="#060724" fill-opacity="1"><g transform="translate(113.942009, 37.451186)"><g><path d="M 2.515625 -6.875 C 2.753906 -7.34375 3.09375 -7.707031 3.53125 -7.96875 C 3.976562 -8.226562 4.523438 -8.359375 5.171875 -8.359375 L 5.171875 -6.953125 L 4.8125 -6.953125 C 3.28125 -6.953125 2.515625 -6.117188 2.515625 -4.453125 L 2.515625 0 L 1.15625 0 L 1.15625 -8.203125 L 2.515625 -8.203125 Z M 2.515625 -6.875 "/></g></g></g><g fill="#060724" fill-opacity="1"><g transform="translate(119.526866, 37.451186)"><g><path d="M 1.859375 -9.53125 C 1.597656 -9.53125 1.375 -9.617188 1.1875 -9.796875 C 1.007812 -9.984375 0.921875 -10.207031 0.921875 -10.46875 C 0.921875 -10.726562 1.007812 -10.945312 1.1875 -11.125 C 1.375 -11.300781 1.597656 -11.390625 1.859375 -11.390625 C 2.109375 -11.390625 2.316406 -11.300781 2.484375 -11.125 C 2.660156 -10.945312 2.75 -10.726562 2.75 -10.46875 C 2.75 -10.207031 2.660156 -9.984375 2.484375 -9.796875 C 2.316406 -9.617188 2.109375 -9.53125 1.859375 -9.53125 Z M 2.515625 -8.203125 L 2.515625 0 L 1.15625 0 L 1.15625 -8.203125 Z M 2.515625 -8.203125 "/></g></g></g><g fill="#060724" fill-opacity="1"><g transform="translate(123.21018, 37.451186)"><g><path d="M 5.15625 -8.359375 C 6.144531 -8.359375 6.945312 -8.054688 7.5625 -7.453125 C 8.1875 -6.847656 8.5 -5.972656 8.5 -4.828125 L 8.5 0 L 7.15625 0 L 7.15625 -4.640625 C 7.15625 -5.460938 6.945312 -6.085938 6.53125 -6.515625 C 6.125 -6.953125 5.566406 -7.171875 4.859375 -7.171875 C 4.140625 -7.171875 3.566406 -6.945312 3.140625 -6.5 C 2.722656 -6.050781 2.515625 -5.394531 2.515625 -4.53125 L 2.515625 0 L 1.15625 0 L 1.15625 -8.203125 L 2.515625 -8.203125 L 2.515625 -7.03125 C 2.785156 -7.445312 3.148438 -7.769531 3.609375 -8 C 4.078125 -8.238281 4.59375 -8.359375 5.15625 -8.359375 Z M 5.15625 -8.359375 "/></g></g></g><g fill="#060724" fill-opacity="1"><g transform="translate(132.792779, 37.451186)"><g><path d="M 4.53125 -8.34375 C 5.238281 -8.34375 5.859375 -8.1875 6.390625 -7.875 C 6.929688 -7.5625 7.332031 -7.171875 7.59375 -6.703125 L 7.59375 -8.203125 L 8.96875 -8.203125 L 8.96875 0.171875 C 8.96875 0.921875 8.804688 1.585938 8.484375 2.171875 C 8.171875 2.753906 7.71875 3.210938 7.125 3.546875 C 6.53125 3.878906 5.835938 4.046875 5.046875 4.046875 C 3.960938 4.046875 3.0625 3.789062 2.34375 3.28125 C 1.625 2.769531 1.203125 2.078125 1.078125 1.203125 L 2.421875 1.203125 C 2.578125 1.703125 2.890625 2.101562 3.359375 2.40625 C 3.828125 2.707031 4.390625 2.859375 5.046875 2.859375 C 5.796875 2.859375 6.40625 2.625 6.875 2.15625 C 7.351562 1.6875 7.59375 1.023438 7.59375 0.171875 L 7.59375 -1.546875 C 7.320312 -1.066406 6.921875 -0.664062 6.390625 -0.34375 C 5.859375 -0.0195312 5.238281 0.140625 4.53125 0.140625 C 3.800781 0.140625 3.140625 -0.0351562 2.546875 -0.390625 C 1.953125 -0.753906 1.484375 -1.257812 1.140625 -1.90625 C 0.804688 -2.5625 0.640625 -3.300781 0.640625 -4.125 C 0.640625 -4.96875 0.804688 -5.707031 1.140625 -6.34375 C 1.484375 -6.976562 1.953125 -7.46875 2.546875 -7.8125 C 3.140625 -8.164062 3.800781 -8.34375 4.53125 -8.34375 Z M 7.59375 -4.109375 C 7.59375 -4.734375 7.46875 -5.273438 7.21875 -5.734375 C 6.96875 -6.191406 6.628906 -6.539062 6.203125 -6.78125 C 5.773438 -7.03125 5.3125 -7.15625 4.8125 -7.15625 C 4.300781 -7.15625 3.832031 -7.035156 3.40625 -6.796875 C 2.988281 -6.554688 2.65625 -6.207031 2.40625 -5.75 C 2.15625 -5.289062 2.03125 -4.75 2.03125 -4.125 C 2.03125 -3.5 2.15625 -2.953125 2.40625 -2.484375 C 2.65625 -2.023438 2.988281 -1.671875 3.40625 -1.421875 C 3.832031 -1.179688 4.300781 -1.0625 4.8125 -1.0625 C 5.3125 -1.0625 5.773438 -1.179688 6.203125 -1.421875 C 6.628906 -1.671875 6.96875 -2.023438 7.21875 -2.484375 C 7.46875 -2.953125 7.59375 -3.492188 7.59375 -4.109375 Z M 7.59375 -4.109375 "/></g></g></g><g fill="#060724" fill-opacity="1"><g transform="translate(20.234194, 217.325708)"><g><path d="M 4.40625 -10.4375 C 5.539062 -10.4375 6.523438 -10.222656 7.359375 -9.796875 C 8.191406 -9.367188 8.828125 -8.757812 9.265625 -7.96875 C 9.710938 -7.1875 9.9375 -6.257812 9.9375 -5.1875 C 9.9375 -4.125 9.710938 -3.203125 9.265625 -2.421875 C 8.828125 -1.640625 8.191406 -1.039062 7.359375 -0.625 C 6.523438 -0.207031 5.539062 0 4.40625 0 L 1.15625 0 L 1.15625 -10.4375 Z M 4.40625 -1.125 C 5.75 -1.125 6.773438 -1.476562 7.484375 -2.1875 C 8.191406 -2.90625 8.546875 -3.90625 8.546875 -5.1875 C 8.546875 -6.488281 8.1875 -7.503906 7.46875 -8.234375 C 6.757812 -8.960938 5.738281 -9.328125 4.40625 -9.328125 L 2.515625 -9.328125 L 2.515625 -1.125 Z M 4.40625 -1.125 "/></g></g></g><g fill="#060724" fill-opacity="1"><g transform="translate(30.81997, 217.325708)"><g><path d="M 8.640625 -4.421875 C 8.640625 -4.160156 8.625 -3.882812 8.59375 -3.59375 L 2.03125 -3.59375 C 2.082031 -2.78125 2.359375 -2.144531 2.859375 -1.6875 C 3.367188 -1.238281 3.984375 -1.015625 4.703125 -1.015625 C 5.285156 -1.015625 5.773438 -1.148438 6.171875 -1.421875 C 6.566406 -1.703125 6.84375 -2.070312 7 -2.53125 L 8.46875 -2.53125 C 8.25 -1.738281 7.8125 -1.09375 7.15625 -0.59375 C 6.5 -0.101562 5.679688 0.140625 4.703125 0.140625 C 3.921875 0.140625 3.222656 -0.03125 2.609375 -0.375 C 1.992188 -0.726562 1.507812 -1.226562 1.15625 -1.875 C 0.8125 -2.519531 0.640625 -3.265625 0.640625 -4.109375 C 0.640625 -4.960938 0.804688 -5.707031 1.140625 -6.34375 C 1.484375 -6.988281 1.960938 -7.484375 2.578125 -7.828125 C 3.191406 -8.171875 3.898438 -8.34375 4.703125 -8.34375 C 5.484375 -8.34375 6.171875 -8.171875 6.765625 -7.828125 C 7.359375 -7.484375 7.816406 -7.015625 8.140625 -6.421875 C 8.472656 -5.828125 8.640625 -5.160156 8.640625 -4.421875 Z M 7.234375 -4.703125 C 7.234375 -5.222656 7.117188 -5.664062 6.890625 -6.03125 C 6.660156 -6.40625 6.347656 -6.691406 5.953125 -6.890625 C 5.554688 -7.085938 5.117188 -7.1875 4.640625 -7.1875 C 3.953125 -7.1875 3.363281 -6.96875 2.875 -6.53125 C 2.394531 -6.09375 2.117188 -5.484375 2.046875 -4.703125 Z M 7.234375 -4.703125 "/></g></g></g><g fill="#060724" fill-opacity="1"><g transform="translate(40.103117, 217.325708)"><g><path d="M 4.203125 -1.25 L 6.75 -8.203125 L 8.203125 -8.203125 L 4.984375 0 L 3.390625 0 L 0.171875 -8.203125 L 1.640625 -8.203125 Z M 4.203125 -1.25 "/></g></g></g><g fill="#060724" fill-opacity="1"><g transform="translate(48.502862, 217.325708)"><g><path d="M 8.640625 -4.421875 C 8.640625 -4.160156 8.625 -3.882812 8.59375 -3.59375 L 2.03125 -3.59375 C 2.082031 -2.78125 2.359375 -2.144531 2.859375 -1.6875 C 3.367188 -1.238281 3.984375 -1.015625 4.703125 -1.015625 C 5.285156 -1.015625 5.773438 -1.148438 6.171875 -1.421875 C 6.566406 -1.703125 6.84375 -2.070312 7 -2.53125 L 8.46875 -2.53125 C 8.25 -1.738281 7.8125 -1.09375 7.15625 -0.59375 C 6.5 -0.101562 5.679688 0.140625 4.703125 0.140625 C 3.921875 0.140625 3.222656 -0.03125 2.609375 -0.375 C 1.992188 -0.726562 1.507812 -1.226562 1.15625 -1.875 C 0.8125 -2.519531 0.640625 -3.265625 0.640625 -4.109375 C 0.640625 -4.960938 0.804688 -5.707031 1.140625 -6.34375 C 1.484375 -6.988281 1.960938 -7.484375 2.578125 -7.828125 C 3.191406 -8.171875 3.898438 -8.34375 4.703125 -8.34375 C 5.484375 -8.34375 6.171875 -8.171875 6.765625 -7.828125 C 7.359375 -7.484375 7.816406 -7.015625 8.140625 -6.421875 C 8.472656 -5.828125 8.640625 -5.160156 8.640625 -4.421875 Z M 7.234375 -4.703125 C 7.234375 -5.222656 7.117188 -5.664062 6.890625 -6.03125 C 6.660156 -6.40625 6.347656 -6.691406 5.953125 -6.890625 C 5.554688 -7.085938 5.117188 -7.1875 4.640625 -7.1875 C 3.953125 -7.1875 3.363281 -6.96875 2.875 -6.53125 C 2.394531 -6.09375 2.117188 -5.484375 2.046875 -4.703125 Z M 7.234375 -4.703125 "/></g></g></g><g fill="#060724" fill-opacity="1"><g transform="translate(57.786009, 217.325708)"><g><path d="M 2.515625 -11.078125 L 2.515625 0 L 1.15625 0 L 1.15625 -11.078125 Z M 2.515625 -11.078125 "/></g></g></g><g fill="#060724" fill-opacity="1"><g transform="translate(61.469323, 217.325708)"><g><path d="M 4.734375 0.140625 C 3.960938 0.140625 3.265625 -0.03125 2.640625 -0.375 C 2.015625 -0.726562 1.523438 -1.226562 1.171875 -1.875 C 0.816406 -2.519531 0.640625 -3.265625 0.640625 -4.109375 C 0.640625 -4.953125 0.820312 -5.695312 1.1875 -6.34375 C 1.550781 -6.988281 2.046875 -7.484375 2.671875 -7.828125 C 3.304688 -8.171875 4.015625 -8.34375 4.796875 -8.34375 C 5.566406 -8.34375 6.265625 -8.171875 6.890625 -7.828125 C 7.523438 -7.484375 8.023438 -6.988281 8.390625 -6.34375 C 8.753906 -5.707031 8.9375 -4.960938 8.9375 -4.109375 C 8.9375 -3.265625 8.75 -2.519531 8.375 -1.875 C 8 -1.226562 7.488281 -0.726562 6.84375 -0.375 C 6.207031 -0.03125 5.503906 0.140625 4.734375 0.140625 Z M 4.734375 -1.0625 C 5.222656 -1.0625 5.679688 -1.175781 6.109375 -1.40625 C 6.535156 -1.632812 6.878906 -1.976562 7.140625 -2.4375 C 7.410156 -2.894531 7.546875 -3.453125 7.546875 -4.109375 C 7.546875 -4.773438 7.414062 -5.335938 7.15625 -5.796875 C 6.894531 -6.253906 6.554688 -6.59375 6.140625 -6.8125 C 5.722656 -7.039062 5.269531 -7.15625 4.78125 -7.15625 C 4.28125 -7.15625 3.820312 -7.039062 3.40625 -6.8125 C 2.988281 -6.59375 2.65625 -6.253906 2.40625 -5.796875 C 2.15625 -5.335938 2.03125 -4.773438 2.03125 -4.109375 C 2.03125 -3.441406 2.148438 -2.878906 2.390625 -2.421875 C 2.640625 -1.960938 2.96875 -1.617188 3.375 -1.390625 C 3.789062 -1.171875 4.242188 -1.0625 4.734375 -1.0625 Z M 4.734375 -1.0625 "/></g></g></g><g fill="#060724" fill-opacity="1"><g transform="translate(71.051922, 217.325708)"><g><path d="M 2.515625 -6.6875 C 2.785156 -7.15625 3.1875 -7.546875 3.71875 -7.859375 C 4.25 -8.179688 4.867188 -8.34375 5.578125 -8.34375 C 6.304688 -8.34375 6.96875 -8.164062 7.5625 -7.8125 C 8.15625 -7.46875 8.617188 -6.976562 8.953125 -6.34375 C 9.296875 -5.707031 9.46875 -4.96875 9.46875 -4.125 C 9.46875 -3.300781 9.296875 -2.5625 8.953125 -1.90625 C 8.617188 -1.257812 8.15625 -0.753906 7.5625 -0.390625 C 6.96875 -0.0351562 6.304688 0.140625 5.578125 0.140625 C 4.878906 0.140625 4.265625 -0.015625 3.734375 -0.328125 C 3.203125 -0.648438 2.796875 -1.046875 2.515625 -1.515625 L 2.515625 3.890625 L 1.15625 3.890625 L 1.15625 -8.203125 L 2.515625 -8.203125 Z M 8.078125 -4.125 C 8.078125 -4.75 7.953125 -5.289062 7.703125 -5.75 C 7.453125 -6.207031 7.113281 -6.554688 6.6875 -6.796875 C 6.269531 -7.035156 5.804688 -7.15625 5.296875 -7.15625 C 4.796875 -7.15625 4.332031 -7.03125 3.90625 -6.78125 C 3.488281 -6.539062 3.148438 -6.1875 2.890625 -5.71875 C 2.640625 -5.257812 2.515625 -4.722656 2.515625 -4.109375 C 2.515625 -3.492188 2.640625 -2.953125 2.890625 -2.484375 C 3.148438 -2.023438 3.488281 -1.671875 3.90625 -1.421875 C 4.332031 -1.179688 4.796875 -1.0625 5.296875 -1.0625 C 5.804688 -1.0625 6.269531 -1.179688 6.6875 -1.421875 C 7.113281 -1.671875 7.453125 -2.023438 7.703125 -2.484375 C 7.953125 -2.953125 8.078125 -3.5 8.078125 -4.125 Z M 8.078125 -4.125 "/></g></g></g><g fill="#060724" fill-opacity="1"><g transform="translate(81.173544, 217.325708)"><g><path d="M 11.015625 -8.359375 C 11.648438 -8.359375 12.21875 -8.222656 12.71875 -7.953125 C 13.21875 -7.691406 13.613281 -7.296875 13.90625 -6.765625 C 14.195312 -6.234375 14.34375 -5.585938 14.34375 -4.828125 L 14.34375 0 L 13 0 L 13 -4.640625 C 13 -5.460938 12.796875 -6.085938 12.390625 -6.515625 C 11.984375 -6.953125 11.4375 -7.171875 10.75 -7.171875 C 10.039062 -7.171875 9.472656 -6.941406 9.046875 -6.484375 C 8.628906 -6.035156 8.421875 -5.378906 8.421875 -4.515625 L 8.421875 0 L 7.078125 0 L 7.078125 -4.640625 C 7.078125 -5.460938 6.875 -6.085938 6.46875 -6.515625 C 6.070312 -6.953125 5.523438 -7.171875 4.828125 -7.171875 C 4.117188 -7.171875 3.554688 -6.941406 3.140625 -6.484375 C 2.722656 -6.035156 2.515625 -5.378906 2.515625 -4.515625 L 2.515625 0 L 1.15625 0 L 1.15625 -8.203125 L 2.515625 -8.203125 L 2.515625 -7.015625 C 2.785156 -7.441406 3.144531 -7.769531 3.59375 -8 C 4.050781 -8.238281 4.554688 -8.359375 5.109375 -8.359375 C 5.796875 -8.359375 6.398438 -8.203125 6.921875 -7.890625 C 7.453125 -7.578125 7.847656 -7.125 8.109375 -6.53125 C 8.335938 -7.101562 8.71875 -7.550781 9.25 -7.875 C 9.78125 -8.195312 10.367188 -8.359375 11.015625 -8.359375 Z M 11.015625 -8.359375 "/></g></g></g><g fill="#060724" fill-opacity="1"><g transform="translate(96.595536, 217.325708)"><g><path d="M 8.640625 -4.421875 C 8.640625 -4.160156 8.625 -3.882812 8.59375 -3.59375 L 2.03125 -3.59375 C 2.082031 -2.78125 2.359375 -2.144531 2.859375 -1.6875 C 3.367188 -1.238281 3.984375 -1.015625 4.703125 -1.015625 C 5.285156 -1.015625 5.773438 -1.148438 6.171875 -1.421875 C 6.566406 -1.703125 6.84375 -2.070312 7 -2.53125 L 8.46875 -2.53125 C 8.25 -1.738281 7.8125 -1.09375 7.15625 -0.59375 C 6.5 -0.101562 5.679688 0.140625 4.703125 0.140625 C 3.921875 0.140625 3.222656 -0.03125 2.609375 -0.375 C 1.992188 -0.726562 1.507812 -1.226562 1.15625 -1.875 C 0.8125 -2.519531 0.640625 -3.265625 0.640625 -4.109375 C 0.640625 -4.960938 0.804688 -5.707031 1.140625 -6.34375 C 1.484375 -6.988281 1.960938 -7.484375 2.578125 -7.828125 C 3.191406 -8.171875 3.898438 -8.34375 4.703125 -8.34375 C 5.484375 -8.34375 6.171875 -8.171875 6.765625 -7.828125 C 7.359375 -7.484375 7.816406 -7.015625 8.140625 -6.421875 C 8.472656 -5.828125 8.640625 -5.160156 8.640625 -4.421875 Z M 7.234375 -4.703125 C 7.234375 -5.222656 7.117188 -5.664062 6.890625 -6.03125 C 6.660156 -6.40625 6.347656 -6.691406 5.953125 -6.890625 C 5.554688 -7.085938 5.117188 -7.1875 4.640625 -7.1875 C 3.953125 -7.1875 3.363281 -6.96875 2.875 -6.53125 C 2.394531 -6.09375 2.117188 -5.484375 2.046875 -4.703125 Z M 7.234375 -4.703125 "/></g></g></g><g fill="#060724" fill-opacity="1"><g transform="translate(105.878683, 217.325708)"><g><path d="M 5.15625 -8.359375 C 6.144531 -8.359375 6.945312 -8.054688 7.5625 -7.453125 C 8.1875 -6.847656 8.5 -5.972656 8.5 -4.828125 L 8.5 0 L 7.15625 0 L 7.15625 -4.640625 C 7.15625 -5.460938 6.945312 -6.085938 6.53125 -6.515625 C 6.125 -6.953125 5.566406 -7.171875 4.859375 -7.171875 C 4.140625 -7.171875 3.566406 -6.945312 3.140625 -6.5 C 2.722656 -6.050781 2.515625 -5.394531 2.515625 -4.53125 L 2.515625 0 L 1.15625 0 L 1.15625 -8.203125 L 2.515625 -8.203125 L 2.515625 -7.03125 C 2.785156 -7.445312 3.148438 -7.769531 3.609375 -8 C 4.078125 -8.238281 4.59375 -8.359375 5.15625 -8.359375 Z M 5.15625 -8.359375 "/></g></g></g><g fill="#060724" fill-opacity="1"><g transform="translate(115.461283, 217.325708)"><g><path d="M 2.8125 -7.078125 L 2.8125 -2.25 C 2.8125 -1.84375 2.894531 -1.554688 3.0625 -1.390625 C 3.238281 -1.234375 3.535156 -1.15625 3.953125 -1.15625 L 4.953125 -1.15625 L 4.953125 0 L 3.734375 0 C 2.972656 0 2.398438 -0.171875 2.015625 -0.515625 C 1.640625 -0.867188 1.453125 -1.445312 1.453125 -2.25 L 1.453125 -7.078125 L 0.390625 -7.078125 L 0.390625 -8.203125 L 1.453125 -8.203125 L 1.453125 -10.265625 L 2.8125 -10.265625 L 2.8125 -8.203125 L 4.953125 -8.203125 L 4.953125 -7.078125 Z M 2.8125 -7.078125 "/></g></g></g><g fill="#060724" fill-opacity="1"><g transform="translate(48.509127, 408.75239)"><g><path d="M 11.734375 -10.359375 L 11.734375 0 L 10.375 0 L 10.375 -7.71875 L 6.9375 0 L 5.96875 0 L 2.515625 -7.734375 L 2.515625 0 L 1.15625 0 L 1.15625 -10.359375 L 2.625 -10.359375 L 6.453125 -1.796875 L 10.28125 -10.359375 Z M 11.734375 -10.359375 "/></g></g></g><g fill="#060724" fill-opacity="1"><g transform="translate(61.400719, 408.75239)"><g><path d="M 0.640625 -4.125 C 0.640625 -4.96875 0.804688 -5.707031 1.140625 -6.34375 C 1.484375 -6.976562 1.953125 -7.46875 2.546875 -7.8125 C 3.140625 -8.164062 3.800781 -8.34375 4.53125 -8.34375 C 5.25 -8.34375 5.875 -8.1875 6.40625 -7.875 C 6.9375 -7.5625 7.332031 -7.171875 7.59375 -6.703125 L 7.59375 -8.203125 L 8.96875 -8.203125 L 8.96875 0 L 7.59375 0 L 7.59375 -1.53125 C 7.320312 -1.050781 6.914062 -0.648438 6.375 -0.328125 C 5.84375 -0.015625 5.222656 0.140625 4.515625 0.140625 C 3.785156 0.140625 3.125 -0.0351562 2.53125 -0.390625 C 1.945312 -0.753906 1.484375 -1.257812 1.140625 -1.90625 C 0.804688 -2.5625 0.640625 -3.300781 0.640625 -4.125 Z M 7.59375 -4.109375 C 7.59375 -4.734375 7.46875 -5.273438 7.21875 -5.734375 C 6.96875 -6.191406 6.628906 -6.539062 6.203125 -6.78125 C 5.773438 -7.03125 5.3125 -7.15625 4.8125 -7.15625 C 4.300781 -7.15625 3.832031 -7.035156 3.40625 -6.796875 C 2.988281 -6.554688 2.65625 -6.207031 2.40625 -5.75 C 2.15625 -5.289062 2.03125 -4.75 2.03125 -4.125 C 2.03125 -3.5 2.15625 -2.953125 2.40625 -2.484375 C 2.65625 -2.023438 2.988281 -1.671875 3.40625 -1.421875 C 3.832031 -1.179688 4.300781 -1.0625 4.8125 -1.0625 C 5.3125 -1.0625 5.773438 -1.179688 6.203125 -1.421875 C 6.628906 -1.671875 6.96875 -2.023438 7.21875 -2.484375 C 7.46875 -2.953125 7.59375 -3.492188 7.59375 -4.109375 Z M 7.59375 -4.109375 "/></g></g></g><g fill="#060724" fill-opacity="1"><g transform="translate(71.522341, 408.75239)"><g><path d="M 1.859375 -9.53125 C 1.597656 -9.53125 1.375 -9.617188 1.1875 -9.796875 C 1.007812 -9.984375 0.921875 -10.207031 0.921875 -10.46875 C 0.921875 -10.726562 1.007812 -10.945312 1.1875 -11.125 C 1.375 -11.300781 1.597656 -11.390625 1.859375 -11.390625 C 2.109375 -11.390625 2.316406 -11.300781 2.484375 -11.125 C 2.660156 -10.945312 2.75 -10.726562 2.75 -10.46875 C 2.75 -10.207031 2.660156 -9.984375 2.484375 -9.796875 C 2.316406 -9.617188 2.109375 -9.53125 1.859375 -9.53125 Z M 2.515625 -8.203125 L 2.515625 0 L 1.15625 0 L 1.15625 -8.203125 Z M 2.515625 -8.203125 "/></g></g></g><g fill="#060724" fill-opacity="1"><g transform="translate(75.205655, 408.75239)"><g><path d="M 5.15625 -8.359375 C 6.144531 -8.359375 6.945312 -8.054688 7.5625 -7.453125 C 8.1875 -6.847656 8.5 -5.972656 8.5 -4.828125 L 8.5 0 L 7.15625 0 L 7.15625 -4.640625 C 7.15625 -5.460938 6.945312 -6.085938 6.53125 -6.515625 C 6.125 -6.953125 5.566406 -7.171875 4.859375 -7.171875 C 4.140625 -7.171875 3.566406 -6.945312 3.140625 -6.5 C 2.722656 -6.050781 2.515625 -5.394531 2.515625 -4.53125 L 2.515625 0 L 1.15625 0 L 1.15625 -8.203125 L 2.515625 -8.203125 L 2.515625 -7.03125 C 2.785156 -7.445312 3.148438 -7.769531 3.609375 -8 C 4.078125 -8.238281 4.59375 -8.359375 5.15625 -8.359375 Z M 5.15625 -8.359375 "/></g></g></g><g fill="#060724" fill-opacity="1"><g transform="translate(84.788254, 408.75239)"><g><path d="M 2.8125 -7.078125 L 2.8125 -2.25 C 2.8125 -1.84375 2.894531 -1.554688 3.0625 -1.390625 C 3.238281 -1.234375 3.535156 -1.15625 3.953125 -1.15625 L 4.953125 -1.15625 L 4.953125 0 L 3.734375 0 C 2.972656 0 2.398438 -0.171875 2.015625 -0.515625 C 1.640625 -0.867188 1.453125 -1.445312 1.453125 -2.25 L 1.453125 -7.078125 L 0.390625 -7.078125 L 0.390625 -8.203125 L 1.453125 -8.203125 L 1.453125 -10.265625 L 2.8125 -10.265625 L 2.8125 -8.203125 L 4.953125 -8.203125 L 4.953125 -7.078125 Z M 2.8125 -7.078125 "/></g></g></g><g fill="#060724" fill-opacity="1"><g transform="translate(90.238361, 408.75239)"><g><path d="M 8.640625 -4.421875 C 8.640625 -4.160156 8.625 -3.882812 8.59375 -3.59375 L 2.03125 -3.59375 C 2.082031 -2.78125 2.359375 -2.144531 2.859375 -1.6875 C 3.367188 -1.238281 3.984375 -1.015625 4.703125 -1.015625 C 5.285156 -1.015625 5.773438 -1.148438 6.171875 -1.421875 C 6.566406 -1.703125 6.84375 -2.070312 7 -2.53125 L 8.46875 -2.53125 C 8.25 -1.738281 7.8125 -1.09375 7.15625 -0.59375 C 6.5 -0.101562 5.679688 0.140625 4.703125 0.140625 C 3.921875 0.140625 3.222656 -0.03125 2.609375 -0.375 C 1.992188 -0.726562 1.507812 -1.226562 1.15625 -1.875 C 0.8125 -2.519531 0.640625 -3.265625 0.640625 -4.109375 C 0.640625 -4.960938 0.804688 -5.707031 1.140625 -6.34375 C 1.484375 -6.988281 1.960938 -7.484375 2.578125 -7.828125 C 3.191406 -8.171875 3.898438 -8.34375 4.703125 -8.34375 C 5.484375 -8.34375 6.171875 -8.171875 6.765625 -7.828125 C 7.359375 -7.484375 7.816406 -7.015625 8.140625 -6.421875 C 8.472656 -5.828125 8.640625 -5.160156 8.640625 -4.421875 Z M 7.234375 -4.703125 C 7.234375 -5.222656 7.117188 -5.664062 6.890625 -6.03125 C 6.660156 -6.40625 6.347656 -6.691406 5.953125 -6.890625 C 5.554688 -7.085938 5.117188 -7.1875 4.640625 -7.1875 C 3.953125 -7.1875 3.363281 -6.96875 2.875 -6.53125 C 2.394531 -6.09375 2.117188 -5.484375 2.046875 -4.703125 Z M 7.234375 -4.703125 "/></g></g></g><g fill="#060724" fill-opacity="1"><g transform="translate(99.521509, 408.75239)"><g><path d="M 5.15625 -8.359375 C 6.144531 -8.359375 6.945312 -8.054688 7.5625 -7.453125 C 8.1875 -6.847656 8.5 -5.972656 8.5 -4.828125 L 8.5 0 L 7.15625 0 L 7.15625 -4.640625 C 7.15625 -5.460938 6.945312 -6.085938 6.53125 -6.515625 C 6.125 -6.953125 5.566406 -7.171875 4.859375 -7.171875 C 4.140625 -7.171875 3.566406 -6.945312 3.140625 -6.5 C 2.722656 -6.050781 2.515625 -5.394531 2.515625 -4.53125 L 2.515625 0 L 1.15625 0 L 1.15625 -8.203125 L 2.515625 -8.203125 L 2.515625 -7.03125 C 2.785156 -7.445312 3.148438 -7.769531 3.609375 -8 C 4.078125 -8.238281 4.59375 -8.359375 5.15625 -8.359375 Z M 5.15625 -8.359375 "/></g></g></g><g fill="#060724" fill-opacity="1"><g transform="translate(109.104108, 408.75239)"><g><path d="M 0.640625 -4.125 C 0.640625 -4.96875 0.804688 -5.707031 1.140625 -6.34375 C 1.484375 -6.976562 1.953125 -7.46875 2.546875 -7.8125 C 3.140625 -8.164062 3.800781 -8.34375 4.53125 -8.34375 C 5.25 -8.34375 5.875 -8.1875 6.40625 -7.875 C 6.9375 -7.5625 7.332031 -7.171875 7.59375 -6.703125 L 7.59375 -8.203125 L 8.96875 -8.203125 L 8.96875 0 L 7.59375 0 L 7.59375 -1.53125 C 7.320312 -1.050781 6.914062 -0.648438 6.375 -0.328125 C 5.84375 -0.015625 5.222656 0.140625 4.515625 0.140625 C 3.785156 0.140625 3.125 -0.0351562 2.53125 -0.390625 C 1.945312 -0.753906 1.484375 -1.257812 1.140625 -1.90625 C 0.804688 -2.5625 0.640625 -3.300781 0.640625 -4.125 Z M 7.59375 -4.109375 C 7.59375 -4.734375 7.46875 -5.273438 7.21875 -5.734375 C 6.96875 -6.191406 6.628906 -6.539062 6.203125 -6.78125 C 5.773438 -7.03125 5.3125 -7.15625 4.8125 -7.15625 C 4.300781 -7.15625 3.832031 -7.035156 3.40625 -6.796875 C 2.988281 -6.554688 2.65625 -6.207031 2.40625 -5.75 C 2.15625 -5.289062 2.03125 -4.75 2.03125 -4.125 C 2.03125 -3.5 2.15625 -2.953125 2.40625 -2.484375 C 2.65625 -2.023438 2.988281 -1.671875 3.40625 -1.421875 C 3.832031 -1.179688 4.300781 -1.0625 4.8125 -1.0625 C 5.3125 -1.0625 5.773438 -1.179688 6.203125 -1.421875 C 6.628906 -1.671875 6.96875 -2.023438 7.21875 -2.484375 C 7.46875 -2.953125 7.59375 -3.492188 7.59375 -4.109375 Z M 7.59375 -4.109375 "/></g></g></g><g fill="#060724" fill-opacity="1"><g transform="translate(119.22573, 408.75239)"><g><path d="M 5.15625 -8.359375 C 6.144531 -8.359375 6.945312 -8.054688 7.5625 -7.453125 C 8.1875 -6.847656 8.5 -5.972656 8.5 -4.828125 L 8.5 0 L 7.15625 0 L 7.15625 -4.640625 C 7.15625 -5.460938 6.945312 -6.085938 6.53125 -6.515625 C 6.125 -6.953125 5.566406 -7.171875 4.859375 -7.171875 C 4.140625 -7.171875 3.566406 -6.945312 3.140625 -6.5 C 2.722656 -6.050781 2.515625 -5.394531 2.515625 -4.53125 L 2.515625 0 L 1.15625 0 L 1.15625 -8.203125 L 2.515625 -8.203125 L 2.515625 -7.03125 C 2.785156 -7.445312 3.148438 -7.769531 3.609375 -8 C 4.078125 -8.238281 4.59375 -8.359375 5.15625 -8.359375 Z M 5.15625 -8.359375 "/></g></g></g><g fill="#060724" fill-opacity="1"><g transform="translate(128.808329, 408.75239)"><g><path d="M 0.640625 -4.109375 C 0.640625 -4.960938 0.804688 -5.707031 1.140625 -6.34375 C 1.484375 -6.976562 1.957031 -7.46875 2.5625 -7.8125 C 3.164062 -8.164062 3.859375 -8.34375 4.640625 -8.34375 C 5.648438 -8.34375 6.476562 -8.097656 7.125 -7.609375 C 7.78125 -7.117188 8.210938 -6.4375 8.421875 -5.5625 L 6.953125 -5.5625 C 6.816406 -6.0625 6.546875 -6.457031 6.140625 -6.75 C 5.734375 -7.039062 5.234375 -7.1875 4.640625 -7.1875 C 3.859375 -7.1875 3.226562 -6.914062 2.75 -6.375 C 2.269531 -5.84375 2.03125 -5.085938 2.03125 -4.109375 C 2.03125 -3.128906 2.269531 -2.367188 2.75 -1.828125 C 3.226562 -1.285156 3.859375 -1.015625 4.640625 -1.015625 C 5.234375 -1.015625 5.726562 -1.15625 6.125 -1.4375 C 6.53125 -1.71875 6.804688 -2.117188 6.953125 -2.640625 L 8.421875 -2.640625 C 8.203125 -1.796875 7.765625 -1.117188 7.109375 -0.609375 C 6.453125 -0.109375 5.628906 0.140625 4.640625 0.140625 C 3.859375 0.140625 3.164062 -0.03125 2.5625 -0.375 C 1.957031 -0.726562 1.484375 -1.222656 1.140625 -1.859375 C 0.804688 -2.503906 0.640625 -3.253906 0.640625 -4.109375 Z M 0.640625 -4.109375 "/></g></g></g><g fill="#060724" fill-opacity="1"><g transform="translate(137.896822, 408.75239)"><g><path d="M 8.640625 -4.421875 C 8.640625 -4.160156 8.625 -3.882812 8.59375 -3.59375 L 2.03125 -3.59375 C 2.082031 -2.78125 2.359375 -2.144531 2.859375 -1.6875 C 3.367188 -1.238281 3.984375 -1.015625 4.703125 -1.015625 C 5.285156 -1.015625 5.773438 -1.148438 6.171875 -1.421875 C 6.566406 -1.703125 6.84375 -2.070312 7 -2.53125 L 8.46875 -2.53125 C 8.25 -1.738281 7.8125 -1.09375 7.15625 -0.59375 C 6.5 -0.101562 5.679688 0.140625 4.703125 0.140625 C 3.921875 0.140625 3.222656 -0.03125 2.609375 -0.375 C 1.992188 -0.726562 1.507812 -1.226562 1.15625 -1.875 C 0.8125 -2.519531 0.640625 -3.265625 0.640625 -4.109375 C 0.640625 -4.960938 0.804688 -5.707031 1.140625 -6.34375 C 1.484375 -6.988281 1.960938 -7.484375 2.578125 -7.828125 C 3.191406 -8.171875 3.898438 -8.34375 4.703125 -8.34375 C 5.484375 -8.34375 6.171875 -8.171875 6.765625 -7.828125 C 7.359375 -7.484375 7.816406 -7.015625 8.140625 -6.421875 C 8.472656 -5.828125 8.640625 -5.160156 8.640625 -4.421875 Z M 7.234375 -4.703125 C 7.234375 -5.222656 7.117188 -5.664062 6.890625 -6.03125 C 6.660156 -6.40625 6.347656 -6.691406 5.953125 -6.890625 C 5.554688 -7.085938 5.117188 -7.1875 4.640625 -7.1875 C 3.953125 -7.1875 3.363281 -6.96875 2.875 -6.53125 C 2.394531 -6.09375 2.117188 -5.484375 2.046875 -4.703125 Z M 7.234375 -4.703125 "/></g></g></g><g fill="#060724" fill-opacity="1"><g transform="translate(280.781682, 119.943007)"><g><path d="M 4.40625 -10.4375 C 5.539062 -10.4375 6.523438 -10.222656 7.359375 -9.796875 C 8.191406 -9.367188 8.828125 -8.757812 9.265625 -7.96875 C 9.710938 -7.1875 9.9375 -6.257812 9.9375 -5.1875 C 9.9375 -4.125 9.710938 -3.203125 9.265625 -2.421875 C 8.828125 -1.640625 8.191406 -1.039062 7.359375 -0.625 C 6.523438 -0.207031 5.539062 0 4.40625 0 L 1.15625 0 L 1.15625 -10.4375 Z M 4.40625 -1.125 C 5.75 -1.125 6.773438 -1.476562 7.484375 -2.1875 C 8.191406 -2.90625 8.546875 -3.90625 8.546875 -5.1875 C 8.546875 -6.488281 8.1875 -7.503906 7.46875 -8.234375 C 6.757812 -8.960938 5.738281 -9.328125 4.40625 -9.328125 L 2.515625 -9.328125 L 2.515625 -1.125 Z M 4.40625 -1.125 "/></g></g></g><g fill="#060724" fill-opacity="1"><g transform="translate(291.367458, 119.943007)"><g><path d="M 8.640625 -4.421875 C 8.640625 -4.160156 8.625 -3.882812 8.59375 -3.59375 L 2.03125 -3.59375 C 2.082031 -2.78125 2.359375 -2.144531 2.859375 -1.6875 C 3.367188 -1.238281 3.984375 -1.015625 4.703125 -1.015625 C 5.285156 -1.015625 5.773438 -1.148438 6.171875 -1.421875 C 6.566406 -1.703125 6.84375 -2.070312 7 -2.53125 L 8.46875 -2.53125 C 8.25 -1.738281 7.8125 -1.09375 7.15625 -0.59375 C 6.5 -0.101562 5.679688 0.140625 4.703125 0.140625 C 3.921875 0.140625 3.222656 -0.03125 2.609375 -0.375 C 1.992188 -0.726562 1.507812 -1.226562 1.15625 -1.875 C 0.8125 -2.519531 0.640625 -3.265625 0.640625 -4.109375 C 0.640625 -4.960938 0.804688 -5.707031 1.140625 -6.34375 C 1.484375 -6.988281 1.960938 -7.484375 2.578125 -7.828125 C 3.191406 -8.171875 3.898438 -8.34375 4.703125 -8.34375 C 5.484375 -8.34375 6.171875 -8.171875 6.765625 -7.828125 C 7.359375 -7.484375 7.816406 -7.015625 8.140625 -6.421875 C 8.472656 -5.828125 8.640625 -5.160156 8.640625 -4.421875 Z M 7.234375 -4.703125 C 7.234375 -5.222656 7.117188 -5.664062 6.890625 -6.03125 C 6.660156 -6.40625 6.347656 -6.691406 5.953125 -6.890625 C 5.554688 -7.085938 5.117188 -7.1875 4.640625 -7.1875 C 3.953125 -7.1875 3.363281 -6.96875 2.875 -6.53125 C 2.394531 -6.09375 2.117188 -5.484375 2.046875 -4.703125 Z M 7.234375 -4.703125 "/></g></g></g><g fill="#060724" fill-opacity="1"><g transform="translate(300.650605, 119.943007)"><g><path d="M 4.0625 0.140625 C 3.425781 0.140625 2.859375 0.03125 2.359375 -0.1875 C 1.859375 -0.40625 1.460938 -0.703125 1.171875 -1.078125 C 0.890625 -1.460938 0.734375 -1.90625 0.703125 -2.40625 L 2.109375 -2.40625 C 2.148438 -2 2.34375 -1.664062 2.6875 -1.40625 C 3.03125 -1.144531 3.484375 -1.015625 4.046875 -1.015625 C 4.554688 -1.015625 4.960938 -1.128906 5.265625 -1.359375 C 5.566406 -1.585938 5.71875 -1.878906 5.71875 -2.234375 C 5.71875 -2.585938 5.554688 -2.851562 5.234375 -3.03125 C 4.921875 -3.207031 4.425781 -3.378906 3.75 -3.546875 C 3.144531 -3.703125 2.648438 -3.863281 2.265625 -4.03125 C 1.878906 -4.195312 1.550781 -4.441406 1.28125 -4.765625 C 1.007812 -5.085938 0.875 -5.515625 0.875 -6.046875 C 0.875 -6.460938 0.992188 -6.84375 1.234375 -7.1875 C 1.484375 -7.539062 1.835938 -7.820312 2.296875 -8.03125 C 2.765625 -8.238281 3.289062 -8.34375 3.875 -8.34375 C 4.78125 -8.34375 5.515625 -8.109375 6.078125 -7.640625 C 6.640625 -7.179688 6.9375 -6.554688 6.96875 -5.765625 L 5.609375 -5.765625 C 5.578125 -6.191406 5.40625 -6.535156 5.09375 -6.796875 C 4.78125 -7.054688 4.359375 -7.1875 3.828125 -7.1875 C 3.335938 -7.1875 2.945312 -7.082031 2.65625 -6.875 C 2.375 -6.664062 2.234375 -6.390625 2.234375 -6.046875 C 2.234375 -5.773438 2.316406 -5.550781 2.484375 -5.375 C 2.660156 -5.207031 2.878906 -5.070312 3.140625 -4.96875 C 3.410156 -4.863281 3.78125 -4.742188 4.25 -4.609375 C 4.84375 -4.453125 5.320312 -4.296875 5.6875 -4.140625 C 6.050781 -3.984375 6.363281 -3.75 6.625 -3.4375 C 6.894531 -3.132812 7.035156 -2.734375 7.046875 -2.234375 C 7.046875 -1.785156 6.921875 -1.378906 6.671875 -1.015625 C 6.421875 -0.660156 6.066406 -0.378906 5.609375 -0.171875 C 5.160156 0.0351562 4.644531 0.140625 4.0625 0.140625 Z M 4.0625 0.140625 "/></g></g></g><g fill="#060724" fill-opacity="1"><g transform="translate(308.46641, 119.943007)"><g><path d="M 1.859375 -9.53125 C 1.597656 -9.53125 1.375 -9.617188 1.1875 -9.796875 C 1.007812 -9.984375 0.921875 -10.207031 0.921875 -10.46875 C 0.921875 -10.726562 1.007812 -10.945312 1.1875 -11.125 C 1.375 -11.300781 1.597656 -11.390625 1.859375 -11.390625 C 2.109375 -11.390625 2.316406 -11.300781 2.484375 -11.125 C 2.660156 -10.945312 2.75 -10.726562 2.75 -10.46875 C 2.75 -10.207031 2.660156 -9.984375 2.484375 -9.796875 C 2.316406 -9.617188 2.109375 -9.53125 1.859375 -9.53125 Z M 2.515625 -8.203125 L 2.515625 0 L 1.15625 0 L 1.15625 -8.203125 Z M 2.515625 -8.203125 "/></g></g></g><g fill="#060724" fill-opacity="1"><g transform="translate(312.149724, 119.943007)"><g><path d="M 4.53125 -8.34375 C 5.238281 -8.34375 5.859375 -8.1875 6.390625 -7.875 C 6.929688 -7.5625 7.332031 -7.171875 7.59375 -6.703125 L 7.59375 -8.203125 L 8.96875 -8.203125 L 8.96875 0.171875 C 8.96875 0.921875 8.804688 1.585938 8.484375 2.171875 C 8.171875 2.753906 7.71875 3.210938 7.125 3.546875 C 6.53125 3.878906 5.835938 4.046875 5.046875 4.046875 C 3.960938 4.046875 3.0625 3.789062 2.34375 3.28125 C 1.625 2.769531 1.203125 2.078125 1.078125 1.203125 L 2.421875 1.203125 C 2.578125 1.703125 2.890625 2.101562 3.359375 2.40625 C 3.828125 2.707031 4.390625 2.859375 5.046875 2.859375 C 5.796875 2.859375 6.40625 2.625 6.875 2.15625 C 7.351562 1.6875 7.59375 1.023438 7.59375 0.171875 L 7.59375 -1.546875 C 7.320312 -1.066406 6.921875 -0.664062 6.390625 -0.34375 C 5.859375 -0.0195312 5.238281 0.140625 4.53125 0.140625 C 3.800781 0.140625 3.140625 -0.0351562 2.546875 -0.390625 C 1.953125 -0.753906 1.484375 -1.257812 1.140625 -1.90625 C 0.804688 -2.5625 0.640625 -3.300781 0.640625 -4.125 C 0.640625 -4.96875 0.804688 -5.707031 1.140625 -6.34375 C 1.484375 -6.976562 1.953125 -7.46875 2.546875 -7.8125 C 3.140625 -8.164062 3.800781 -8.34375 4.53125 -8.34375 Z M 7.59375 -4.109375 C 7.59375 -4.734375 7.46875 -5.273438 7.21875 -5.734375 C 6.96875 -6.191406 6.628906 -6.539062 6.203125 -6.78125 C 5.773438 -7.03125 5.3125 -7.15625 4.8125 -7.15625 C 4.300781 -7.15625 3.832031 -7.035156 3.40625 -6.796875 C 2.988281 -6.554688 2.65625 -6.207031 2.40625 -5.75 C 2.15625 -5.289062 2.03125 -4.75 2.03125 -4.125 C 2.03125 -3.5 2.15625 -2.953125 2.40625 -2.484375 C 2.65625 -2.023438 2.988281 -1.671875 3.40625 -1.421875 C 3.832031 -1.179688 4.300781 -1.0625 4.8125 -1.0625 C 5.3125 -1.0625 5.773438 -1.179688 6.203125 -1.421875 C 6.628906 -1.671875 6.96875 -2.023438 7.21875 -2.484375 C 7.46875 -2.953125 7.59375 -3.492188 7.59375 -4.109375 Z M 7.59375 -4.109375 "/></g></g></g><g fill="#060724" fill-opacity="1"><g transform="translate(322.271346, 119.943007)"><g><path d="M 5.15625 -8.359375 C 6.144531 -8.359375 6.945312 -8.054688 7.5625 -7.453125 C 8.1875 -6.847656 8.5 -5.972656 8.5 -4.828125 L 8.5 0 L 7.15625 0 L 7.15625 -4.640625 C 7.15625 -5.460938 6.945312 -6.085938 6.53125 -6.515625 C 6.125 -6.953125 5.566406 -7.171875 4.859375 -7.171875 C 4.140625 -7.171875 3.566406 -6.945312 3.140625 -6.5 C 2.722656 -6.050781 2.515625 -5.394531 2.515625 -4.53125 L 2.515625 0 L 1.15625 0 L 1.15625 -8.203125 L 2.515625 -8.203125 L 2.515625 -7.03125 C 2.785156 -7.445312 3.148438 -7.769531 3.609375 -8 C 4.078125 -8.238281 4.59375 -8.359375 5.15625 -8.359375 Z M 5.15625 -8.359375 "/></g></g></g><g fill="#060724" fill-opacity="1"><g transform="translate(291.136649, 305.403018)"><g><path d="M 7.578125 -10.4375 L 7.578125 -9.328125 L 4.734375 -9.328125 L 4.734375 0 L 3.375 0 L 3.375 -9.328125 L 0.515625 -9.328125 L 0.515625 -10.4375 Z M 7.578125 -10.4375 "/></g></g></g><g fill="#060724" fill-opacity="1"><g transform="translate(299.236942, 305.403018)"><g><path d="M 8.640625 -4.421875 C 8.640625 -4.160156 8.625 -3.882812 8.59375 -3.59375 L 2.03125 -3.59375 C 2.082031 -2.78125 2.359375 -2.144531 2.859375 -1.6875 C 3.367188 -1.238281 3.984375 -1.015625 4.703125 -1.015625 C 5.285156 -1.015625 5.773438 -1.148438 6.171875 -1.421875 C 6.566406 -1.703125 6.84375 -2.070312 7 -2.53125 L 8.46875 -2.53125 C 8.25 -1.738281 7.8125 -1.09375 7.15625 -0.59375 C 6.5 -0.101562 5.679688 0.140625 4.703125 0.140625 C 3.921875 0.140625 3.222656 -0.03125 2.609375 -0.375 C 1.992188 -0.726562 1.507812 -1.226562 1.15625 -1.875 C 0.8125 -2.519531 0.640625 -3.265625 0.640625 -4.109375 C 0.640625 -4.960938 0.804688 -5.707031 1.140625 -6.34375 C 1.484375 -6.988281 1.960938 -7.484375 2.578125 -7.828125 C 3.191406 -8.171875 3.898438 -8.34375 4.703125 -8.34375 C 5.484375 -8.34375 6.171875 -8.171875 6.765625 -7.828125 C 7.359375 -7.484375 7.816406 -7.015625 8.140625 -6.421875 C 8.472656 -5.828125 8.640625 -5.160156 8.640625 -4.421875 Z M 7.234375 -4.703125 C 7.234375 -5.222656 7.117188 -5.664062 6.890625 -6.03125 C 6.660156 -6.40625 6.347656 -6.691406 5.953125 -6.890625 C 5.554688 -7.085938 5.117188 -7.1875 4.640625 -7.1875 C 3.953125 -7.1875 3.363281 -6.96875 2.875 -6.53125 C 2.394531 -6.09375 2.117188 -5.484375 2.046875 -4.703125 Z M 7.234375 -4.703125 "/></g></g></g><g fill="#060724" fill-opacity="1"><g transform="translate(308.520089, 305.403018)"><g><path d="M 4.0625 0.140625 C 3.425781 0.140625 2.859375 0.03125 2.359375 -0.1875 C 1.859375 -0.40625 1.460938 -0.703125 1.171875 -1.078125 C 0.890625 -1.460938 0.734375 -1.90625 0.703125 -2.40625 L 2.109375 -2.40625 C 2.148438 -2 2.34375 -1.664062 2.6875 -1.40625 C 3.03125 -1.144531 3.484375 -1.015625 4.046875 -1.015625 C 4.554688 -1.015625 4.960938 -1.128906 5.265625 -1.359375 C 5.566406 -1.585938 5.71875 -1.878906 5.71875 -2.234375 C 5.71875 -2.585938 5.554688 -2.851562 5.234375 -3.03125 C 4.921875 -3.207031 4.425781 -3.378906 3.75 -3.546875 C 3.144531 -3.703125 2.648438 -3.863281 2.265625 -4.03125 C 1.878906 -4.195312 1.550781 -4.441406 1.28125 -4.765625 C 1.007812 -5.085938 0.875 -5.515625 0.875 -6.046875 C 0.875 -6.460938 0.992188 -6.84375 1.234375 -7.1875 C 1.484375 -7.539062 1.835938 -7.820312 2.296875 -8.03125 C 2.765625 -8.238281 3.289062 -8.34375 3.875 -8.34375 C 4.78125 -8.34375 5.515625 -8.109375 6.078125 -7.640625 C 6.640625 -7.179688 6.9375 -6.554688 6.96875 -5.765625 L 5.609375 -5.765625 C 5.578125 -6.191406 5.40625 -6.535156 5.09375 -6.796875 C 4.78125 -7.054688 4.359375 -7.1875 3.828125 -7.1875 C 3.335938 -7.1875 2.945312 -7.082031 2.65625 -6.875 C 2.375 -6.664062 2.234375 -6.390625 2.234375 -6.046875 C 2.234375 -5.773438 2.316406 -5.550781 2.484375 -5.375 C 2.660156 -5.207031 2.878906 -5.070312 3.140625 -4.96875 C 3.410156 -4.863281 3.78125 -4.742188 4.25 -4.609375 C 4.84375 -4.453125 5.320312 -4.296875 5.6875 -4.140625 C 6.050781 -3.984375 6.363281 -3.75 6.625 -3.4375 C 6.894531 -3.132812 7.035156 -2.734375 7.046875 -2.234375 C 7.046875 -1.785156 6.921875 -1.378906 6.671875 -1.015625 C 6.421875 -0.660156 6.066406 -0.378906 5.609375 -0.171875 C 5.160156 0.0351562 4.644531 0.140625 4.0625 0.140625 Z M 4.0625 0.140625 "/></g></g></g><g fill="#060724" fill-opacity="1"><g transform="translate(316.335894, 305.403018)"><g><path d="M 2.8125 -7.078125 L 2.8125 -2.25 C 2.8125 -1.84375 2.894531 -1.554688 3.0625 -1.390625 C 3.238281 -1.234375 3.535156 -1.15625 3.953125 -1.15625 L 4.953125 -1.15625 L 4.953125 0 L 3.734375 0 C 2.972656 0 2.398438 -0.171875 2.015625 -0.515625 C 1.640625 -0.867188 1.453125 -1.445312 1.453125 -2.25 L 1.453125 -7.078125 L 0.390625 -7.078125 L 0.390625 -8.203125 L 1.453125 -8.203125 L 1.453125 -10.265625 L 2.8125 -10.265625 L 2.8125 -8.203125 L 4.953125 -8.203125 L 4.953125 -7.078125 Z M 2.8125 -7.078125 "/></g></g></g><g fill="#060724" fill-opacity="1"><g transform="translate(321.786002, 305.403018)"><g><path d="M 1.859375 -9.53125 C 1.597656 -9.53125 1.375 -9.617188 1.1875 -9.796875 C 1.007812 -9.984375 0.921875 -10.207031 0.921875 -10.46875 C 0.921875 -10.726562 1.007812 -10.945312 1.1875 -11.125 C 1.375 -11.300781 1.597656 -11.390625 1.859375 -11.390625 C 2.109375 -11.390625 2.316406 -11.300781 2.484375 -11.125 C 2.660156 -10.945312 2.75 -10.726562 2.75 -10.46875 C 2.75 -10.207031 2.660156 -9.984375 2.484375 -9.796875 C 2.316406 -9.617188 2.109375 -9.53125 1.859375 -9.53125 Z M 2.515625 -8.203125 L 2.515625 0 L 1.15625 0 L 1.15625 -8.203125 Z M 2.515625 -8.203125 "/></g></g></g><g fill="#060724" fill-opacity="1"><g transform="translate(325.469316, 305.403018)"><g><path d="M 5.15625 -8.359375 C 6.144531 -8.359375 6.945312 -8.054688 7.5625 -7.453125 C 8.1875 -6.847656 8.5 -5.972656 8.5 -4.828125 L 8.5 0 L 7.15625 0 L 7.15625 -4.640625 C 7.15625 -5.460938 6.945312 -6.085938 6.53125 -6.515625 C 6.125 -6.953125 5.566406 -7.171875 4.859375 -7.171875 C 4.140625 -7.171875 3.566406 -6.945312 3.140625 -6.5 C 2.722656 -6.050781 2.515625 -5.394531 2.515625 -4.53125 L 2.515625 0 L 1.15625 0 L 1.15625 -8.203125 L 2.515625 -8.203125 L 2.515625 -7.03125 C 2.785156 -7.445312 3.148438 -7.769531 3.609375 -8 C 4.078125 -8.238281 4.59375 -8.359375 5.15625 -8.359375 Z M 5.15625 -8.359375 "/></g></g></g><g fill="#060724" fill-opacity="1"><g transform="translate(335.051915, 305.403018)"><g><path d="M 4.53125 -8.34375 C 5.238281 -8.34375 5.859375 -8.1875 6.390625 -7.875 C 6.929688 -7.5625 7.332031 -7.171875 7.59375 -6.703125 L 7.59375 -8.203125 L 8.96875 -8.203125 L 8.96875 0.171875 C 8.96875 0.921875 8.804688 1.585938 8.484375 2.171875 C 8.171875 2.753906 7.71875 3.210938 7.125 3.546875 C 6.53125 3.878906 5.835938 4.046875 5.046875 4.046875 C 3.960938 4.046875 3.0625 3.789062 2.34375 3.28125 C 1.625 2.769531 1.203125 2.078125 1.078125 1.203125 L 2.421875 1.203125 C 2.578125 1.703125 2.890625 2.101562 3.359375 2.40625 C 3.828125 2.707031 4.390625 2.859375 5.046875 2.859375 C 5.796875 2.859375 6.40625 2.625 6.875 2.15625 C 7.351562 1.6875 7.59375 1.023438 7.59375 0.171875 L 7.59375 -1.546875 C 7.320312 -1.066406 6.921875 -0.664062 6.390625 -0.34375 C 5.859375 -0.0195312 5.238281 0.140625 4.53125 0.140625 C 3.800781 0.140625 3.140625 -0.0351562 2.546875 -0.390625 C 1.953125 -0.753906 1.484375 -1.257812 1.140625 -1.90625 C 0.804688 -2.5625 0.640625 -3.300781 0.640625 -4.125 C 0.640625 -4.96875 0.804688 -5.707031 1.140625 -6.34375 C 1.484375 -6.976562 1.953125 -7.46875 2.546875 -7.8125 C 3.140625 -8.164062 3.800781 -8.34375 4.53125 -8.34375 Z M 7.59375 -4.109375 C 7.59375 -4.734375 7.46875 -5.273438 7.21875 -5.734375 C 6.96875 -6.191406 6.628906 -6.539062 6.203125 -6.78125 C 5.773438 -7.03125 5.3125 -7.15625 4.8125 -7.15625 C 4.300781 -7.15625 3.832031 -7.035156 3.40625 -6.796875 C 2.988281 -6.554688 2.65625 -6.207031 2.40625 -5.75 C 2.15625 -5.289062 2.03125 -4.75 2.03125 -4.125 C 2.03125 -3.5 2.15625 -2.953125 2.40625 -2.484375 C 2.65625 -2.023438 2.988281 -1.671875 3.40625 -1.421875 C 3.832031 -1.179688 4.300781 -1.0625 4.8125 -1.0625 C 5.3125 -1.0625 5.773438 -1.179688 6.203125 -1.421875 C 6.628906 -1.671875 6.96875 -2.023438 7.21875 -2.484375 C 7.46875 -2.953125 7.59375 -3.492188 7.59375 -4.109375 Z M 7.59375 -4.109375 "/></g></g></g><g fill="#060724" fill-opacity="1"><g transform="translate(345.173536, 305.403018)"><g/></g></g><g fill="#060724" fill-opacity="1"><g transform="translate(349.171278, 305.403018)"><g><path d="M 0.640625 -4.125 C 0.640625 -4.96875 0.804688 -5.707031 1.140625 -6.34375 C 1.484375 -6.976562 1.953125 -7.46875 2.546875 -7.8125 C 3.140625 -8.164062 3.800781 -8.34375 4.53125 -8.34375 C 5.25 -8.34375 5.875 -8.1875 6.40625 -7.875 C 6.9375 -7.5625 7.332031 -7.171875 7.59375 -6.703125 L 7.59375 -8.203125 L 8.96875 -8.203125 L 8.96875 0 L 7.59375 0 L 7.59375 -1.53125 C 7.320312 -1.050781 6.914062 -0.648438 6.375 -0.328125 C 5.84375 -0.015625 5.222656 0.140625 4.515625 0.140625 C 3.785156 0.140625 3.125 -0.0351562 2.53125 -0.390625 C 1.945312 -0.753906 1.484375 -1.257812 1.140625 -1.90625 C 0.804688 -2.5625 0.640625 -3.300781 0.640625 -4.125 Z M 7.59375 -4.109375 C 7.59375 -4.734375 7.46875 -5.273438 7.21875 -5.734375 C 6.96875 -6.191406 6.628906 -6.539062 6.203125 -6.78125 C 5.773438 -7.03125 5.3125 -7.15625 4.8125 -7.15625 C 4.300781 -7.15625 3.832031 -7.035156 3.40625 -6.796875 C 2.988281 -6.554688 2.65625 -6.207031 2.40625 -5.75 C 2.15625 -5.289062 2.03125 -4.75 2.03125 -4.125 C 2.03125 -3.5 2.15625 -2.953125 2.40625 -2.484375 C 2.65625 -2.023438 2.988281 -1.671875 3.40625 -1.421875 C 3.832031 -1.179688 4.300781 -1.0625 4.8125 -1.0625 C 5.3125 -1.0625 5.773438 -1.179688 6.203125 -1.421875 C 6.628906 -1.671875 6.96875 -2.023438 7.21875 -2.484375 C 7.46875 -2.953125 7.59375 -3.492188 7.59375 -4.109375 Z M 7.59375 -4.109375 "/></g></g></g><g fill="#060724" fill-opacity="1"><g transform="translate(359.2929, 305.403018)"><g><path d="M 5.15625 -8.359375 C 6.144531 -8.359375 6.945312 -8.054688 7.5625 -7.453125 C 8.1875 -6.847656 8.5 -5.972656 8.5 -4.828125 L 8.5 0 L 7.15625 0 L 7.15625 -4.640625 C 7.15625 -5.460938 6.945312 -6.085938 6.53125 -6.515625 C 6.125 -6.953125 5.566406 -7.171875 4.859375 -7.171875 C 4.140625 -7.171875 3.566406 -6.945312 3.140625 -6.5 C 2.722656 -6.050781 2.515625 -5.394531 2.515625 -4.53125 L 2.515625 0 L 1.15625 0 L 1.15625 -8.203125 L 2.515625 -8.203125 L 2.515625 -7.03125 C 2.785156 -7.445312 3.148438 -7.769531 3.609375 -8 C 4.078125 -8.238281 4.59375 -8.359375 5.15625 -8.359375 Z M 5.15625 -8.359375 "/></g></g></g><g fill="#060724" fill-opacity="1"><g transform="translate(368.875499, 305.403018)"><g><path d="M 0.640625 -4.125 C 0.640625 -4.96875 0.804688 -5.707031 1.140625 -6.34375 C 1.484375 -6.976562 1.953125 -7.46875 2.546875 -7.8125 C 3.140625 -8.164062 3.804688 -8.34375 4.546875 -8.34375 C 5.191406 -8.34375 5.785156 -8.191406 6.328125 -7.890625 C 6.878906 -7.597656 7.300781 -7.210938 7.59375 -6.734375 L 7.59375 -11.078125 L 8.96875 -11.078125 L 8.96875 0 L 7.59375 0 L 7.59375 -1.546875 C 7.320312 -1.054688 6.921875 -0.648438 6.390625 -0.328125 C 5.859375 -0.015625 5.238281 0.140625 4.53125 0.140625 C 3.800781 0.140625 3.140625 -0.0351562 2.546875 -0.390625 C 1.953125 -0.753906 1.484375 -1.257812 1.140625 -1.90625 C 0.804688 -2.5625 0.640625 -3.300781 0.640625 -4.125 Z M 7.59375 -4.109375 C 7.59375 -4.734375 7.46875 -5.273438 7.21875 -5.734375 C 6.96875 -6.191406 6.628906 -6.539062 6.203125 -6.78125 C 5.773438 -7.03125 5.3125 -7.15625 4.8125 -7.15625 C 4.300781 -7.15625 3.832031 -7.035156 3.40625 -6.796875 C 2.988281 -6.554688 2.65625 -6.207031 2.40625 -5.75 C 2.15625 -5.289062 2.03125 -4.75 2.03125 -4.125 C 2.03125 -3.5 2.15625 -2.953125 2.40625 -2.484375 C 2.65625 -2.023438 2.988281 -1.671875 3.40625 -1.421875 C 3.832031 -1.179688 4.300781 -1.0625 4.8125 -1.0625 C 5.3125 -1.0625 5.773438 -1.179688 6.203125 -1.421875 C 6.628906 -1.671875 6.96875 -2.023438 7.21875 -2.484375 C 7.46875 -2.953125 7.59375 -3.492188 7.59375 -4.109375 Z M 7.59375 -4.109375 "/></g></g></g><g fill="#060724" fill-opacity="1"><g transform="translate(289.358626, 321.124485)"><g><path d="M 4.40625 -10.4375 C 5.539062 -10.4375 6.523438 -10.222656 7.359375 -9.796875 C 8.191406 -9.367188 8.828125 -8.757812 9.265625 -7.96875 C 9.710938 -7.1875 9.9375 -6.257812 9.9375 -5.1875 C 9.9375 -4.125 9.710938 -3.203125 9.265625 -2.421875 C 8.828125 -1.640625 8.191406 -1.039062 7.359375 -0.625 C 6.523438 -0.207031 5.539062 0 4.40625 0 L 1.15625 0 L 1.15625 -10.4375 Z M 4.40625 -1.125 C 5.75 -1.125 6.773438 -1.476562 7.484375 -2.1875 C 8.191406 -2.90625 8.546875 -3.90625 8.546875 -5.1875 C 8.546875 -6.488281 8.1875 -7.503906 7.46875 -8.234375 C 6.757812 -8.960938 5.738281 -9.328125 4.40625 -9.328125 L 2.515625 -9.328125 L 2.515625 -1.125 Z M 4.40625 -1.125 "/></g></g></g><g fill="#060724" fill-opacity="1"><g transform="translate(299.944402, 321.124485)"><g><path d="M 8.640625 -4.421875 C 8.640625 -4.160156 8.625 -3.882812 8.59375 -3.59375 L 2.03125 -3.59375 C 2.082031 -2.78125 2.359375 -2.144531 2.859375 -1.6875 C 3.367188 -1.238281 3.984375 -1.015625 4.703125 -1.015625 C 5.285156 -1.015625 5.773438 -1.148438 6.171875 -1.421875 C 6.566406 -1.703125 6.84375 -2.070312 7 -2.53125 L 8.46875 -2.53125 C 8.25 -1.738281 7.8125 -1.09375 7.15625 -0.59375 C 6.5 -0.101562 5.679688 0.140625 4.703125 0.140625 C 3.921875 0.140625 3.222656 -0.03125 2.609375 -0.375 C 1.992188 -0.726562 1.507812 -1.226562 1.15625 -1.875 C 0.8125 -2.519531 0.640625 -3.265625 0.640625 -4.109375 C 0.640625 -4.960938 0.804688 -5.707031 1.140625 -6.34375 C 1.484375 -6.988281 1.960938 -7.484375 2.578125 -7.828125 C 3.191406 -8.171875 3.898438 -8.34375 4.703125 -8.34375 C 5.484375 -8.34375 6.171875 -8.171875 6.765625 -7.828125 C 7.359375 -7.484375 7.816406 -7.015625 8.140625 -6.421875 C 8.472656 -5.828125 8.640625 -5.160156 8.640625 -4.421875 Z M 7.234375 -4.703125 C 7.234375 -5.222656 7.117188 -5.664062 6.890625 -6.03125 C 6.660156 -6.40625 6.347656 -6.691406 5.953125 -6.890625 C 5.554688 -7.085938 5.117188 -7.1875 4.640625 -7.1875 C 3.953125 -7.1875 3.363281 -6.96875 2.875 -6.53125 C 2.394531 -6.09375 2.117188 -5.484375 2.046875 -4.703125 Z M 7.234375 -4.703125 "/></g></g></g><g fill="#060724" fill-opacity="1"><g transform="translate(309.227549, 321.124485)"><g><path d="M 2.515625 -6.6875 C 2.785156 -7.15625 3.1875 -7.546875 3.71875 -7.859375 C 4.25 -8.179688 4.867188 -8.34375 5.578125 -8.34375 C 6.304688 -8.34375 6.96875 -8.164062 7.5625 -7.8125 C 8.15625 -7.46875 8.617188 -6.976562 8.953125 -6.34375 C 9.296875 -5.707031 9.46875 -4.96875 9.46875 -4.125 C 9.46875 -3.300781 9.296875 -2.5625 8.953125 -1.90625 C 8.617188 -1.257812 8.15625 -0.753906 7.5625 -0.390625 C 6.96875 -0.0351562 6.304688 0.140625 5.578125 0.140625 C 4.878906 0.140625 4.265625 -0.015625 3.734375 -0.328125 C 3.203125 -0.648438 2.796875 -1.046875 2.515625 -1.515625 L 2.515625 3.890625 L 1.15625 3.890625 L 1.15625 -8.203125 L 2.515625 -8.203125 Z M 8.078125 -4.125 C 8.078125 -4.75 7.953125 -5.289062 7.703125 -5.75 C 7.453125 -6.207031 7.113281 -6.554688 6.6875 -6.796875 C 6.269531 -7.035156 5.804688 -7.15625 5.296875 -7.15625 C 4.796875 -7.15625 4.332031 -7.03125 3.90625 -6.78125 C 3.488281 -6.539062 3.148438 -6.1875 2.890625 -5.71875 C 2.640625 -5.257812 2.515625 -4.722656 2.515625 -4.109375 C 2.515625 -3.492188 2.640625 -2.953125 2.890625 -2.484375 C 3.148438 -2.023438 3.488281 -1.671875 3.90625 -1.421875 C 4.332031 -1.179688 4.796875 -1.0625 5.296875 -1.0625 C 5.804688 -1.0625 6.269531 -1.179688 6.6875 -1.421875 C 7.113281 -1.671875 7.453125 -2.023438 7.703125 -2.484375 C 7.953125 -2.953125 8.078125 -3.5 8.078125 -4.125 Z M 8.078125 -4.125 "/></g></g></g><g fill="#060724" fill-opacity="1"><g transform="translate(319.349171, 321.124485)"><g><path d="M 2.515625 -11.078125 L 2.515625 0 L 1.15625 0 L 1.15625 -11.078125 Z M 2.515625 -11.078125 "/></g></g></g><g fill="#060724" fill-opacity="1"><g transform="translate(323.032484, 321.124485)"><g><path d="M 4.734375 0.140625 C 3.960938 0.140625 3.265625 -0.03125 2.640625 -0.375 C 2.015625 -0.726562 1.523438 -1.226562 1.171875 -1.875 C 0.816406 -2.519531 0.640625 -3.265625 0.640625 -4.109375 C 0.640625 -4.953125 0.820312 -5.695312 1.1875 -6.34375 C 1.550781 -6.988281 2.046875 -7.484375 2.671875 -7.828125 C 3.304688 -8.171875 4.015625 -8.34375 4.796875 -8.34375 C 5.566406 -8.34375 6.265625 -8.171875 6.890625 -7.828125 C 7.523438 -7.484375 8.023438 -6.988281 8.390625 -6.34375 C 8.753906 -5.707031 8.9375 -4.960938 8.9375 -4.109375 C 8.9375 -3.265625 8.75 -2.519531 8.375 -1.875 C 8 -1.226562 7.488281 -0.726562 6.84375 -0.375 C 6.207031 -0.03125 5.503906 0.140625 4.734375 0.140625 Z M 4.734375 -1.0625 C 5.222656 -1.0625 5.679688 -1.175781 6.109375 -1.40625 C 6.535156 -1.632812 6.878906 -1.976562 7.140625 -2.4375 C 7.410156 -2.894531 7.546875 -3.453125 7.546875 -4.109375 C 7.546875 -4.773438 7.414062 -5.335938 7.15625 -5.796875 C 6.894531 -6.253906 6.554688 -6.59375 6.140625 -6.8125 C 5.722656 -7.039062 5.269531 -7.15625 4.78125 -7.15625 C 4.28125 -7.15625 3.820312 -7.039062 3.40625 -6.8125 C 2.988281 -6.59375 2.65625 -6.253906 2.40625 -5.796875 C 2.15625 -5.335938 2.03125 -4.773438 2.03125 -4.109375 C 2.03125 -3.441406 2.148438 -2.878906 2.390625 -2.421875 C 2.640625 -1.960938 2.96875 -1.617188 3.375 -1.390625 C 3.789062 -1.171875 4.242188 -1.0625 4.734375 -1.0625 Z M 4.734375 -1.0625 "/></g></g></g><g fill="#060724" fill-opacity="1"><g transform="translate(332.615084, 321.124485)"><g><path d="M 8.21875 -8.203125 L 3.28125 3.859375 L 1.875 3.859375 L 3.484375 -0.09375 L 0.171875 -8.203125 L 1.6875 -8.203125 L 4.265625 -1.5625 L 6.8125 -8.203125 Z M 8.21875 -8.203125 "/></g></g></g><g fill="#060724" fill-opacity="1"><g transform="translate(341.04478, 321.124485)"><g><path d="M 11.015625 -8.359375 C 11.648438 -8.359375 12.21875 -8.222656 12.71875 -7.953125 C 13.21875 -7.691406 13.613281 -7.296875 13.90625 -6.765625 C 14.195312 -6.234375 14.34375 -5.585938 14.34375 -4.828125 L 14.34375 0 L 13 0 L 13 -4.640625 C 13 -5.460938 12.796875 -6.085938 12.390625 -6.515625 C 11.984375 -6.953125 11.4375 -7.171875 10.75 -7.171875 C 10.039062 -7.171875 9.472656 -6.941406 9.046875 -6.484375 C 8.628906 -6.035156 8.421875 -5.378906 8.421875 -4.515625 L 8.421875 0 L 7.078125 0 L 7.078125 -4.640625 C 7.078125 -5.460938 6.875 -6.085938 6.46875 -6.515625 C 6.070312 -6.953125 5.523438 -7.171875 4.828125 -7.171875 C 4.117188 -7.171875 3.554688 -6.941406 3.140625 -6.484375 C 2.722656 -6.035156 2.515625 -5.378906 2.515625 -4.515625 L 2.515625 0 L 1.15625 0 L 1.15625 -8.203125 L 2.515625 -8.203125 L 2.515625 -7.015625 C 2.785156 -7.441406 3.144531 -7.769531 3.59375 -8 C 4.050781 -8.238281 4.554688 -8.359375 5.109375 -8.359375 C 5.796875 -8.359375 6.398438 -8.203125 6.921875 -7.890625 C 7.453125 -7.578125 7.847656 -7.125 8.109375 -6.53125 C 8.335938 -7.101562 8.71875 -7.550781 9.25 -7.875 C 9.78125 -8.195312 10.367188 -8.359375 11.015625 -8.359375 Z M 11.015625 -8.359375 "/></g></g></g><g fill="#060724" fill-opacity="1"><g transform="translate(356.466772, 321.124485)"><g><path d="M 8.640625 -4.421875 C 8.640625 -4.160156 8.625 -3.882812 8.59375 -3.59375 L 2.03125 -3.59375 C 2.082031 -2.78125 2.359375 -2.144531 2.859375 -1.6875 C 3.367188 -1.238281 3.984375 -1.015625 4.703125 -1.015625 C 5.285156 -1.015625 5.773438 -1.148438 6.171875 -1.421875 C 6.566406 -1.703125 6.84375 -2.070312 7 -2.53125 L 8.46875 -2.53125 C 8.25 -1.738281 7.8125 -1.09375 7.15625 -0.59375 C 6.5 -0.101562 5.679688 0.140625 4.703125 0.140625 C 3.921875 0.140625 3.222656 -0.03125 2.609375 -0.375 C 1.992188 -0.726562 1.507812 -1.226562 1.15625 -1.875 C 0.8125 -2.519531 0.640625 -3.265625 0.640625 -4.109375 C 0.640625 -4.960938 0.804688 -5.707031 1.140625 -6.34375 C 1.484375 -6.988281 1.960938 -7.484375 2.578125 -7.828125 C 3.191406 -8.171875 3.898438 -8.34375 4.703125 -8.34375 C 5.484375 -8.34375 6.171875 -8.171875 6.765625 -7.828125 C 7.359375 -7.484375 7.816406 -7.015625 8.140625 -6.421875 C 8.472656 -5.828125 8.640625 -5.160156 8.640625 -4.421875 Z M 7.234375 -4.703125 C 7.234375 -5.222656 7.117188 -5.664062 6.890625 -6.03125 C 6.660156 -6.40625 6.347656 -6.691406 5.953125 -6.890625 C 5.554688 -7.085938 5.117188 -7.1875 4.640625 -7.1875 C 3.953125 -7.1875 3.363281 -6.96875 2.875 -6.53125 C 2.394531 -6.09375 2.117188 -5.484375 2.046875 -4.703125 Z M 7.234375 -4.703125 "/></g></g></g><g fill="#060724" fill-opacity="1"><g transform="translate(365.74992, 321.124485)"><g><path d="M 5.15625 -8.359375 C 6.144531 -8.359375 6.945312 -8.054688 7.5625 -7.453125 C 8.1875 -6.847656 8.5 -5.972656 8.5 -4.828125 L 8.5 0 L 7.15625 0 L 7.15625 -4.640625 C 7.15625 -5.460938 6.945312 -6.085938 6.53125 -6.515625 C 6.125 -6.953125 5.566406 -7.171875 4.859375 -7.171875 C 4.140625 -7.171875 3.566406 -6.945312 3.140625 -6.5 C 2.722656 -6.050781 2.515625 -5.394531 2.515625 -4.53125 L 2.515625 0 L 1.15625 0 L 1.15625 -8.203125 L 2.515625 -8.203125 L 2.515625 -7.03125 C 2.785156 -7.445312 3.148438 -7.769531 3.609375 -8 C 4.078125 -8.238281 4.59375 -8.359375 5.15625 -8.359375 Z M 5.15625 -8.359375 "/></g></g></g><g fill="#060724" fill-opacity="1"><g transform="translate(375.332519, 321.124485)"><g><path d="M 2.8125 -7.078125 L 2.8125 -2.25 C 2.8125 -1.84375 2.894531 -1.554688 3.0625 -1.390625 C 3.238281 -1.234375 3.535156 -1.15625 3.953125 -1.15625 L 4.953125 -1.15625 L 4.953125 0 L 3.734375 0 C 2.972656 0 2.398438 -0.171875 2.015625 -0.515625 C 1.640625 -0.867188 1.453125 -1.445312 1.453125 -2.25 L 1.453125 -7.078125 L 0.390625 -7.078125 L 0.390625 -8.203125 L 1.453125 -8.203125 L 1.453125 -10.265625 L 2.8125 -10.265625 L 2.8125 -8.203125 L 4.953125 -8.203125 L 4.953125 -7.078125 Z M 2.8125 -7.078125 "/></g></g></g></svg>